<svg xmlns="http://www.w3.org/2000/svg" height="512" width="512"><defs><clipPath id="a" clipPathUnits="userSpaceOnUse"><path fill-opacity=".67" d="M0 0h512v512H0z"/></clipPath></defs><g clip-path="url(#a)"><path fill-rule="evenodd" fill="#fff" d="M-167.86.449h429.52v256.07h-429.52z"/><path d="m-167.86.45-.018 19.219 102.5 63.22 38.565 1.342-141.05-83.78z" fill="#c00"/><path d="M-123.97.45.29 78.366V.45h-124.26z" fill="#006"/><path d="M16.866.45v99.468h-184.73v56.839h184.73v99.468h56.839v-99.468h184.73v-56.84H73.705V.45H16.866z" fill="#c00"/><path d="M90.283.45v73.417l121.57-72.848-121.57-.57z" fill="#006"/><path d="m94.12 81.871 34.19-.33L261.13 1.019l-35.24.689L94.12 81.87z" fill="#c00"/><path d="M259.78 22.495 158.32 82.89l100.11.45v89.995h-85.258l84.47 54.942 1.239 27.948-45.116-.647-123.48-72.77v73.417H.29v-73.417l-115.83 73.22-52.315.197v255.78h852.58V.455l-424.04-.46m-428.54 28.869-.45 53.12 89.757 1.35-89.307-54.47zM-167.86 173.33v54.471l85.258-53.902-85.258-.569z" fill="#006"/><path d="m160.45 175.58-35.543-.331 133.97 80.072-.881-18.32-97.55-61.421zm-295.02 81.091 125.62-79.172-32.994.263-125.92 78.79" fill="#c00"/><path d="m368.61 245.108 2.165 2.166-2.165-2.166z" fill="#49497d"/><path d="m370.775 245.108 2.166 2.166-2.166-2.166z" fill="#0e0e6e"/><path d="m364.279 247.274 2.165 2.165-2.165-2.165z" fill="#262678"/><path d="m366.444 247.274 2.166 2.165-2.166-2.165z" fill="#808067"/><path d="m372.94 247.274 2.166 2.165-2.165-2.165z" fill="#58587b"/><path d="m292.817 249.439 2.166 2.166-2.166-2.166z" fill="#0e0e6e"/><path d="m359.948 249.439 2.165 2.166-2.165-2.166z" fill="#1b1b74"/><path d="m362.113 249.439 2.166 2.166-2.166-2.166z" fill="#6e6c70"/><path d="M296.628 253.359c0 55.952-6.449 119.005 35.255 162.824 8.58 9.014 24.9 29.572 38.892 28.783 14.647-.825 33.483-22.5 41.861-33.114 36.303-47.754 30.532-104.713 31.766-160.14-16.393 7.363-24.557 9.788-38.892 9.745-10.618 1.091-26.998-6.045-36.792-10.714-6.401 4.275-15.687 9.373-32.374 9.945-19.273.848-25.38-2.418-39.716-7.33z" fill="#cc3"/><path d="m375.106 249.439 2.166 2.166-2.166-2.166z" fill="#99994e"/><path d="m377.272 249.439 2.165 2.166-2.165-2.166z" fill="#49497d"/><path d="m444.402 249.439 2.166 2.166-2.166-2.166z" fill="#0e0e6e"/><path d="m294.983 251.605 2.165 2.165-2.165-2.165z" fill="#a4a43d"/><path d="m297.148 251.605 2.166 2.165-2.166-2.165z" fill="#6e6c70"/><path d="m299.314 251.605 2.165 2.165-2.165-2.165z" fill="#3a3a7c"/><path d="m355.617 251.605 2.165 2.165-2.165-2.165z" fill="#1b1b74"/><path d="m357.782 251.605 2.166 2.165-2.166-2.165z" fill="#6e6c70"/><path d="m359.948 251.605 2.165 2.165-2.165-2.165z" fill="#a4a43d"/><path d="m368.61 251.605 2.165 2.165-2.165-2.165z" fill="#d0d045"/><path d="m377.272 251.605 2.165 2.165-2.165-2.165z" fill="#a4a43d"/><path d="m379.437 251.605 2.166 2.165-2.166-2.165z" fill="#8d8d5b"/><path d="m381.603 251.605 2.165 2.165-2.165-2.165z" fill="#3a3a7c"/><path d="m437.906 251.605 2.165 2.165-2.165-2.165z" fill="#262678"/><path d="m440.071 251.605 2.166 2.165-2.166-2.165z" fill="#53527c"/><path d="m442.237 251.605 2.165 2.165-2.165-2.165z" fill="#8d8d5b"/><path d="m303.645 253.77 2.165 2.166-2.165-2.166z" fill="#737370"/><path d="m305.81 253.77 2.166 2.166-2.166-2.166z" fill="#53527c"/><path d="m307.976 253.77 2.165 2.166-2.165-2.166z" fill="#1b1b74"/><path d="m351.286 253.77 2.165 2.166-2.165-2.166z" fill="#262678"/><path d="m353.451 253.77 2.166 2.166-2.166-2.166z" fill="#6e6c70"/><path d="m355.617 253.77 2.165 2.166-2.165-2.166z" fill="#a4a43d"/><path d="m366.444 253.77 2.166 2.166-2.166-2.166z" fill="#e5e59d"/><path d="M301.068 259.444c-1.165 29.392-.271 62.49 4.324 93.939 5.08 16.43 4.4 25.455 11.95 35.302l105.671-.823c6.367-10.36 11.09-26.068 11.698-32.313 5.901-31.762 6.042-66.813 6.183-98.163-10.626 5.649-24.542 9.652-38.048 7.895-10.827-.825-20.832-3.297-32.482-9.881-10.107 6.054-13.63 8.818-30.317 9.525-12.993.641-23.518 1.693-38.98-5.482z" fill="#fff"/><path d="m370.775 253.77 2.166 2.166-2.166-2.166z" fill="#f2f1d7"/><path d="m372.94 253.77 2.166 2.166-2.165-2.166z" fill="#d9d868"/><path d="m381.603 253.77 2.165 2.166-2.165-2.166z" fill="#a4a43d"/><path d="m383.768 253.77 2.166 2.166-2.166-2.166z" fill="#99994e"/><path d="m385.934 253.77 2.165 2.166-2.165-2.166z" fill="#49497d"/><path d="m388.099 253.77 2.166 2.166-2.166-2.166z" fill="#0e0e6e"/><path d="m431.409 253.77 2.166 2.166-2.166-2.166z" fill="#3a3a7c"/><path d="m433.575 253.77 2.165 2.166-2.165-2.166z" fill="#667"/><path d="m435.74 253.77 2.166 2.166-2.166-2.166z" fill="#99994e"/><path d="m437.906 253.77 2.165 2.166-2.165-2.166m-129.93 2.166 2.165 2.165-2.165-2.165z" fill="#a4a43d"/><path d="m310.141 255.936 2.166 2.165-2.166-2.165z" fill="#99994e"/><path d="m312.307 255.936 2.165 2.165-2.165-2.165z" fill="#6e6c70"/><path d="m314.472 255.936 2.166 2.165-2.166-2.165z" fill="#49497d"/><path d="m316.638 255.936 2.165 2.165-2.165-2.165m28.151 0 2.166 2.165-2.166-2.165z" fill="#1b1b74"/><path d="m346.955 255.936 2.165 2.165-2.165-2.165z" fill="#53527c"/><path d="m349.12 255.936 2.166 2.165-2.166-2.165z" fill="#8d8d5b"/><path d="m351.286 255.936 2.165 2.165-2.165-2.165z" fill="#a4a43d"/><path d="m362.113 255.936 2.166 2.165-2.166-2.165z" fill="#e5e59d"/><path d="m364.279 255.936 2.165 2.165-2.165-2.165z" fill="#fbfaf2"/><path d="m375.106 255.936 2.166 2.165-2.166-2.165z" fill="#f2f1d2"/><path d="m377.272 255.936 2.165 2.165-2.165-2.165z" fill="#d9d868"/><path d="m388.099 255.936 2.166 2.165-2.166-2.165z" fill="#a4a43d"/><path d="m390.265 255.936 2.165 2.165-2.165-2.165z" fill="#6e6c70"/><path d="m392.43 255.936 2.166 2.165-2.166-2.165z" fill="#3a3a7c"/><path d="m420.582 255.936 2.165 2.165-2.165-2.165z" fill="#0e0e6e"/><path d="m422.747 255.936 2.166 2.165-2.166-2.165z" fill="#32327b"/><path d="m424.913 255.936 2.165 2.165-2.165-2.165z" fill="#58587b"/><path d="m427.078 255.936 2.166 2.165-2.166-2.165z" fill="#808067"/><path d="m430.694 256.65 1.443.722-1.443-.722z" fill="#a4a43d"/><path d="m299.314 258.101 2.165 2.166-2.165-2.166z" fill="#dddc7a"/><path d="m301.479 258.101 2.166 2.166-2.166-2.166z" fill="#d0d045"/><path d="m318.088 258.816 1.443.722-1.443-.722z" fill="#a4a43d"/><path d="m320.969 258.101 2.165 2.166-2.165-2.166z" fill="#808067"/><path d="m323.134 258.101 2.166 2.166-2.166-2.166z" fill="#667"/><path d="m325.3 258.101 2.165 2.166-2.165-2.166z" fill="#58587b"/><path d="m327.465 258.101 2.166 2.166-2.166-2.166z" fill="#49497d"/><path d="m340.458 258.101 2.166 2.166-2.166-2.166z" fill="#737370"/><path d="m342.624 258.101 2.165 2.166-2.165-2.166z" fill="#99994e"/><path d="m344.789 258.101 2.166 2.166-2.166-2.166z" fill="#a4a43d"/><path d="m357.782 258.101 2.166 2.166-2.166-2.166z" fill="#e5e59d"/><path d="m359.948 258.101 2.165 2.166-2.165-2.166z" fill="#fbfaf2"/><path d="m379.437 258.101 2.166 2.166-2.166-2.166z" fill="#f2f1d2"/><path d="m381.603 258.101 2.165 2.166-2.165-2.166z" fill="#d9d868"/><path d="m393.88 258.816 1.443.722-1.442-.722z" fill="#a4a43d"/><path d="m396.761 258.101 2.166 2.166-2.166-2.166z" fill="#808067"/><path d="m398.927 258.101 2.165 2.166-2.165-2.166z" fill="#667"/><path d="m401.092 258.101 2.166 2.166-2.166-2.166z" fill="#58587b"/><path d="m403.258 258.101 2.165 2.166-2.165-2.166z" fill="#3a3a7c"/><path d="m413.37 258.816 1.443.722-1.443-.722z" fill="#58587b"/><path d="m416.25 258.101 2.166 2.166-2.165-2.166z" fill="#737370"/><path d="m418.416 258.101 2.166 2.166-2.166-2.166z" fill="#99994e"/><path d="m420.582 258.101 2.165 2.166-2.165-2.166z" fill="#a4a43d"/><path d="m437.906 258.101 2.165 2.166-2.165-2.166z" fill="#dddc7a"/><path d="m440.071 258.101 2.166 2.166-2.166-2.166z" fill="#d0d045"/><path d="m303.645 260.267 2.165 2.165-2.165-2.165z" fill="#f2f1d7"/><path d="m305.81 260.267 2.166 2.165-2.166-2.165z" fill="#e0dea1"/><path d="m307.976 260.267 2.165 2.165-2.165-2.165z" fill="#dddc7a"/><path d="m351.286 260.267 2.165 2.165-2.165-2.165z" fill="#d9d868"/><path d="m353.451 260.267 2.166 2.165-2.166-2.165z" fill="#e5e3af"/><path d="m383.768 260.267 2.166 2.165-2.166-2.165z" fill="#f6f6e4"/><path d="m385.934 260.267 2.165 2.165-2.165-2.165z" fill="#e1e18c"/><path d="m429.244 260.267 2.165 2.165-2.165-2.165z" fill="#d4d456"/><path d="m431.409 260.267 2.166 2.165-2.166-2.165z" fill="#e1e18c"/><path d="m433.575 260.267 2.165 2.165-2.165-2.165z" fill="#eeedc1"/><path d="m312.307 262.432 2.165 2.166-2.165-2.166z" fill="#f2f1d2"/><path d="m314.472 262.432 2.166 2.166-2.166-2.166z" fill="#e0dea1"/><path d="m316.638 262.432 2.165 2.166-2.165-2.166z" fill="#dddc7a"/><path d="m318.803 262.432 2.166 2.166-2.166-2.166z" fill="#d0d045"/><path d="m344.789 262.432 2.166 2.166-2.166-2.166z" fill="#dddc7a"/><path d="m346.955 262.432 2.165 2.166-2.165-2.166z" fill="#e5e3af"/><path d="m349.12 262.432 2.166 2.166-2.166-2.166z" fill="#f6f6e4"/><path d="m390.265 262.432 2.165 2.166-2.165-2.166z" fill="#eeedc1"/><path d="m392.43 262.432 2.166 2.166-2.166-2.166z" fill="#e1e18c"/><path d="m394.596 262.432 2.165 2.166-2.165-2.166z" fill="#d4d456"/><path d="m420.582 262.432 2.165 2.166-2.165-2.166z" fill="#d9d868"/><path d="m422.747 262.432 2.166 2.166-2.166-2.166z" fill="#e1e18c"/><path d="m424.913 262.432 2.165 2.166-2.165-2.166z" fill="#eeedc1"/><path d="m427.078 262.432 2.166 2.166-2.166-2.166z" fill="#f6f6e4"/><path d="m323.134 264.598 2.166 2.165-2.166-2.165z" fill="#f2f1d7"/><path d="m325.3 264.598 2.165 2.165-2.165-2.165z" fill="#f2f1d2"/><path d="m327.465 264.598 2.166 2.165-2.166-2.165z" fill="#eeedc1"/><path d="m337.578 265.312 1.442.722-1.442-.722z" fill="#f2f1d2"/><path d="m340.458 264.598 2.166 2.165-2.166-2.165z" fill="#fbfaf2"/><path d="m351.286 264.598 4.33 4.33v-4.33h-4.33z" fill="#fef8f1"/><path d="m398.927 264.598 2.165 2.165-2.165-2.165z" fill="#f2f1d7"/><path d="m401.092 264.598 2.166 2.165-2.166-2.165z" fill="#f2f1d2"/><path d="m403.258 264.598 2.165 2.165-2.165-2.165z" fill="#e5e3af"/><path d="m406.874 265.312 1.442.722-1.442-.722z" fill="#e5e59d"/><path d="m409.754 264.598 2.166 2.165-2.166-2.165z" fill="#e0dea1"/><path d="m413.37 265.312 1.443.722-1.443-.722z" fill="#f2f1d2"/><path d="m416.25 264.598 2.166 2.165-2.165-2.165z" fill="#fbfaf2"/><path d="m346.955 266.763 2.165 2.166-2.165-2.166z" fill="#fef8f1"/><path d="m349.12 266.763 2.166 2.166-2.166-2.166z" fill="#fbbe66"/><path d="m346.955 268.929 2.165 2.165-2.165-2.165z" fill="#fbc477"/><path d="m351.286 268.929 2.165 2.165-2.165-2.165z" fill="#fcb144"/><path d="m346.955 271.094 2.165 2.166-2.165-2.166z" fill="#fe9f11"/><path d="m351.286 271.094 2.165 2.166-2.165-2.166z" fill="#fea522"/><path d="m344.789 273.26 2.166 2.165-2.166-2.165m8.662 0 2.166 2.165-2.166-2.165z" fill="#fae3c9"/><path d="m364.279 273.26 2.165 2.165-2.165-2.165z" fill="#fbead6"/><path d="m366.444 273.26 2.166 2.165-2.166-2.165z" fill="#f9d6aa"/><path d="m375.106 273.26 2.166 2.165-2.166-2.165z" fill="#fae3c9"/><path d="m377.272 273.26 2.165 2.165-2.165-2.165z" fill="#fef8f1"/><path d="m344.789 275.425 2.166 2.166-2.166-2.166z" fill="#f9d099"/><path d="m353.451 275.425 2.166 2.166-2.166-2.166z" fill="#fdab33"/><path d="m357.782 275.425 2.166 2.166-2.166-2.166z" fill="#fcf1e4"/><path d="m359.948 275.425 2.165 2.166-2.165-2.166z" fill="#fbc477"/><path d="m362.113 275.425 2.166 2.166-2.166-2.166z" fill="#fea522"/><path d="m379.437 275.425 2.166 2.166-2.166-2.166z" fill="#fcb755"/><path d="m381.603 275.425 2.165 2.166-2.165-2.166z" fill="#f9d6aa"/><path d="m344.789 277.59 2.166 2.166-2.166-2.165z" fill="#faca88"/><path d="m355.617 277.59 2.165 2.166-2.165-2.165m28.151 0 2.166 2.165-2.166-2.165z" fill="#fea522"/><path d="m385.934 277.59 2.165 2.166-2.165-2.165z" fill="#f8dcbb"/><path d="m299.314 279.756 2.165 2.166-2.165-2.166z" fill="#f6f6e4"/><path d="m344.789 279.756 2.166 2.166-2.166-2.166z" fill="#fbc477"/><path d="m388.099 279.756 2.166 2.166-2.166-2.166z" fill="#fbbe66"/><path d="m390.265 279.756 2.165 2.166-2.165-2.166z" fill="#f8dcbb"/><path d="m344.789 281.922 2.166 2.165-2.166-2.165z" fill="#faca88"/><path d="m394.596 281.922 2.165 2.165-2.165-2.165z" fill="#fcb755"/><path d="m396.761 281.922 2.166 2.165-2.166-2.165z" fill="#f8dcbb"/><path d="m342.624 284.087 2.165 2.166-2.165-2.166z" fill="#fef8f1"/><path d="m344.789 284.087 2.166 2.166-2.166-2.166z" fill="#fe9f11"/><path d="m405.423 284.087 2.166 2.166-2.166-2.166z" fill="#fdab33"/><path d="m407.589 284.087 2.165 2.166-2.165-2.166z" fill="#fcb144"/><path d="m409.754 284.087 2.166 2.166-2.166-2.166z" fill="#fbc477"/><path d="m411.92 284.087 4.33 4.331-4.33-4.331z" fill="#f9d6aa"/><path d="m414.085 284.087 2.166 2.166-2.166-2.166z" fill="#fef8f1"/><path d="m342.624 286.253 2.165 2.165-2.165-2.165z" fill="#fcb144"/><path d="m372.94 286.253 2.166 2.165-2.165-2.165z" fill="#fdab33"/><path d="m375.106 286.253 2.166 2.165-2.166-2.165zM383.768 286.253l2.166 2.165-2.166-2.165z" fill="#fbc477"/><path d="m385.934 286.253 2.165 2.165-2.165-2.165z" fill="#fea522"/><path d="m340.458 288.418 2.166 2.166-2.166-2.166z" fill="#fae3c9"/><path d="m368.61 288.418 2.165 2.166-2.165-2.166z" fill="#fcb144"/><path d="m370.775 288.418 2.166 2.166-2.166-2.166z" fill="#fae3c9"/><path d="m388.099 288.418 2.166 2.166-2.166-2.166z" fill="#f8dcbb"/><path d="m390.265 288.418 2.165 2.166-2.165-2.166z" fill="#fdab33"/><path d="m403.258 288.418 2.165 2.166-2.165-2.166z" fill="#fe9f11"/><path d="m405.423 288.418 2.166 2.166-2.166-2.166z" fill="#fcb755"/><path d="m407.589 288.418 2.165 2.166-2.165-2.166z" fill="#f9d099"/><path d="m409.754 288.418 2.166 2.166-2.166-2.166z" fill="#fbead6"/><path d="m340.458 290.584 2.166 2.165-2.166-2.165z" fill="#fcb144"/><path d="m366.444 290.584 2.166 2.165-2.166-2.165z" fill="#fbbe66"/><path d="m392.43 290.584 2.166 2.165-2.166-2.165z" fill="#f9d099"/><path d="m401.092 290.584 2.166 2.165-2.166-2.165z" fill="#fbead6"/><path d="m338.293 292.749 2.165 2.166-2.165-2.166z" fill="#fcf1e4"/><path d="m364.279 292.749 2.165 2.166-2.165-2.166z" fill="#fbbe66"/><path d="m394.596 292.749 2.165 2.166-2.165-2.166z" fill="#f9d099"/><path d="m401.092 292.749 2.166 2.166-2.166-2.166z" fill="#fae3c9"/><path d="m338.293 294.915 2.165 2.165-2.165-2.165z" fill="#fbc477"/><path d="m362.113 294.915 2.166 2.165-2.166-2.165m34.648 0 2.166 2.165-2.166-2.165z" fill="#fcb144"/><path d="m401.092 294.915 2.166 2.165-2.166-2.165z" fill="#fbbe66"/><path d="m299.314 297.08 2.165 2.166-2.165-2.166z" fill="#f6f6e4"/><path d="m338.293 297.08 2.165 2.166-2.165-2.166z" fill="#fea522"/><path d="m362.113 297.08 2.166 2.166-2.166-2.166z" fill="#fbead6"/><path d="m396.761 297.08 2.166 2.166-2.166-2.166z" fill="#fcf1e4"/><path d="m403.258 297.08 2.165 2.166-2.165-2.166z" fill="#fef8f1"/><path d="m336.127 299.246 2.166 2.165-2.166-2.165z" fill="#fcf1e4"/><path d="m359.948 299.246 2.165 2.165-2.165-2.165z" fill="#fbbe66"/><path d="m398.927 299.246 2.165 2.165-2.165-2.165z" fill="#faca88"/><path d="m403.258 299.246 2.165 2.165-2.165-2.165z" fill="#f9d099"/><path d="m336.127 301.411 2.166 2.166-2.166-2.166z" fill="#f9d6aa"/><path d="m359.948 301.411 2.165 2.166-2.165-2.166z" fill="#fcf1e4"/><path d="m370.775 301.411 2.166 2.166-2.166-2.166z" fill="#fae3c9"/><path d="m372.94 301.411 2.166 2.166-2.165-2.166z" fill="#fea522"/><path d="m375.106 301.411 2.166 2.166-2.166-2.166z" fill="#fcb144"/><path d="m377.272 301.411 2.165 2.166-2.165-2.166z" fill="#f9d6aa"/><path d="m398.927 301.411 2.165 2.166-2.165-2.166z" fill="#fef8f1"/><path d="m401.092 301.411 2.166 2.166-2.166-2.166z" fill="#fea522"/><path d="m403.258 301.411 2.165 2.166-2.165-2.166z" fill="#fdab33"/><path d="m336.127 303.577-2.165 6.496 2.165-6.496z" fill="#faca88"/><path d="m357.782 303.577 2.166 2.165-2.166-2.165z" fill="#fea522"/><path d="m359.948 303.577 2.165 2.165-2.165-2.165z" fill="#fef8f1"/><path d="m370.775 303.577 2.166 2.165-2.166-2.165z" fill="#f9d099"/><path d="m379.437 303.577 2.166 2.165-2.166-2.165z" fill="#fdab33"/><path d="m381.603 303.577 2.165 2.165-2.165-2.165z" fill="#fae3c9"/><path d="m401.092 303.577 2.166 2.165-2.166-2.165z" fill="#f8dcbb"/><path d="m403.258 303.577 2.165 2.165-2.165-2.165z" fill="#f90"/><path d="m406.138 305.027.723 1.444-.723-1.444z" fill="#fbead6"/><path d="m362.113 305.742 2.166 2.166-2.166-2.166z" fill="#fea522"/><path d="m364.279 305.742 2.165 2.166-2.165-2.166z" fill="#fbbe66"/><path d="m366.444 305.742 2.166 2.166-2.166-2.166z" fill="#faca88"/><path d="m368.61 305.742 2.165 2.166-2.165-2.166z" fill="#fcb144"/><path d="m370.775 305.742 2.166 2.166-2.166-2.166z" fill="#fae3c9"/><path d="m372.94 305.742 2.166 2.166-2.165-2.166z" fill="#fe9f11"/><path d="m383.768 305.742 2.166 2.166-2.166-2.166z" fill="#fdab33"/><path d="m385.934 305.742 2.165 2.166-2.165-2.166z" fill="#fbc477"/><path d="m388.099 305.742 2.166 2.166-2.166-2.166z" fill="#faca88"/><path d="m390.265 305.742 2.165 2.166-2.165-2.166z" fill="#f9d6aa"/><path d="m393.88 306.457 1.443.722-1.442-.722z" fill="#fae3c9"/><path d="m396.761 305.742 2.166 2.166-2.166-2.166z" fill="#fef8f1"/><path d="m403.258 305.742 2.165 2.166-2.165-2.166z" fill="#fbc477"/><path d="m310.141 307.908 2.166 2.165-2.166-2.165z" fill="#fef8f1"/><path d="m312.307 307.908 2.165 2.165-2.165-2.165z" fill="#fcf1e4"/><path d="m368.61 307.908 2.165 2.165-2.165-2.165z" fill="#fcb755"/><path d="m372.94 307.908 2.166 2.165-2.165-2.165z" fill="#fbead6"/><path d="m375.106 307.908 2.166 2.165-2.166-2.165z" fill="#fea522"/><path d="m392.43 307.908 2.166 2.165-2.166-2.165z" fill="#fe9f11"/><path d="m394.596 307.908-2.166 4.33 2.166-4.33z" fill="#fcb144"/><path d="m398.927 307.908 2.165 2.165-2.165-2.165z" fill="#fe9f11"/><path d="m401.092 307.908 2.166 2.165-2.166-2.165z" fill="#fbbe66"/><path d="m403.258 307.908 2.165 2.165-2.165-2.165z" fill="#fcf1e4"/><path d="m310.141 310.073 2.166 2.166-2.166-2.166z" fill="#fae3c9"/><path d="m312.307 310.073 4.33 4.331-4.33-4.331z" fill="#fe9f11"/><path d="m314.472 310.073 2.166 2.166-2.166-2.166zM333.962 310.073l2.165 2.166-2.165-2.166z" fill="#fbead6"/><path d="m336.127 310.073 2.166 2.166-2.166-2.166z" fill="#fae3c9"/><path d="m355.617 310.073 2.165 2.166-2.165-2.166z" fill="#fe9f11"/><path d="m357.782 310.073 2.166 2.166-2.166-2.166z" fill="#fbc477"/><path d="m359.948 310.073 2.165 2.166-2.165-2.166z" fill="#fea522"/><path d="m366.444 310.073 2.166 2.166-2.166-2.166z" fill="#fbc477"/><path d="m368.61 310.073 2.165 2.166-2.165-2.166z" fill="#fef8f1"/><path d="m377.272 310.073 2.165 2.166-2.165-2.166z" fill="#fbc477"/><path d="m394.596 310.073 2.165 2.166-2.165-2.166z" fill="#fff"/><path d="m396.761 310.073 2.166 2.166-2.166-2.166z" fill="#fdab33"/><path d="m405.423 310.073 2.166 2.166-2.166-2.166z" fill="#fbc477"/><path d="m310.141 312.239 2.166 2.165-2.166-2.165z" fill="#fef8f1"/><path d="m316.638 312.239 2.165 2.165-2.165-2.165z" fill="#fbead6"/><path d="m327.465 312.239 2.166 2.165-2.166-2.165z" fill="#f9d6aa"/><path d="m338.293 312.239 2.165 2.165-2.165-2.165z" fill="#fe9f11"/><path d="m341.909 312.953 1.442.722-1.442-.722z" fill="#f9d6aa"/><path d="m355.617 312.239 2.165 2.165-2.165-2.165z" fill="#f8dcbb"/><path d="m362.113 312.239 2.166 2.165-2.166-2.165z" fill="#fcf1e4"/><path d="m379.437 312.239 2.166 2.165-2.166-2.165z" fill="#f9d6aa"/><path d="m394.596 312.239 2.165 2.165-2.165-2.165z" fill="#fdab33"/><path d="m407.589 312.239 2.165 2.165-2.165-2.165z" fill="#fcb755"/><path d="m409.754 312.239 2.166 2.165-2.166-2.165z" fill="#fef8f1"/><path d="m292.817 314.404 2.166 2.166-2.166-2.166z" fill="#53527c"/><path d="m312.307 314.404 2.165 2.166-2.165-2.166z" fill="#fcb755"/><path d="m316.638 314.404 2.165 2.166-2.165-2.166z" fill="#fea522"/><path d="m325.3 314.404 2.165 2.166-2.165-2.166z" fill="#fbead6"/><path d="m329.63 314.404 2.166 2.166-2.165-2.166z" fill="#fe9f11"/><path d="m331.796 314.404 2.166 2.166-2.166-2.166z" fill="#fcf1e4"/><path d="m338.293 314.404 2.165 2.166-2.165-2.166z" fill="#fbbe66"/><path d="m340.458 314.404 2.166 2.166-2.166-2.166z" fill="#fbc477"/><path d="m342.624 314.404 2.165 2.166-2.165-2.166z" fill="#fbbe66"/><path d="m353.451 314.404 2.166 2.166-2.166-2.166z" fill="#fea522"/><path d="m381.603 314.404 2.165 2.166-2.165-2.166z" fill="#f9d6aa"/><path d="m409.754 314.404 2.166 2.166-2.166-2.166z" fill="#fcb144"/><path d="m444.402 314.404 2.166 2.166-2.166-2.166z" fill="#8d8d5b"/><path d="m299.314 316.57 2.165 2.165-2.165-2.165z" fill="#e5e3af"/><path d="m312.307 316.57 2.165 2.165-2.165-2.165z" fill="#f8dcbb"/><path d="m318.803 316.57 2.166 2.165-2.166-2.165z" fill="#fdab33"/><path d="m325.3 316.57 2.165 2.165-2.165-2.165z" fill="#fe9f11"/><path d="m329.63 316.57 2.166 2.165-2.165-2.165z" fill="#faca88"/><path d="m338.293 316.57 2.165 2.165-2.165-2.165z" fill="#fcf1e4"/><path d="m353.451 316.57 2.166 2.165-2.166-2.165m30.317 0 2.166 2.165-2.166-2.165z" fill="#f9d099"/><path d="m411.92 316.57 2.165 2.165-2.165-2.165z" fill="#fbbe66"/><path d="m314.472 318.735 2.166 2.166-2.166-2.166z" fill="#fea522"/><path d="m320.969 318.735 2.165 2.166-2.165-2.166z" fill="#fdab33"/><path d="m323.134 318.735 2.166 2.166-2.166-2.166z" fill="#fea522"/><path d="m327.465 318.735 2.166 2.166-2.166-2.166z" fill="#fe9f11"/><path d="m329.63 318.735 2.166 2.166-2.165-2.166z" fill="#fef8f1"/><path d="m340.458 318.735 2.166 2.166-2.166-2.166z" fill="#fbbe66"/><path d="m353.451 318.735 2.166 2.166-2.166-2.166z" fill="#fef8f1"/><path d="m385.934 318.735 2.165 2.166-2.165-2.166z" fill="#fbbe66"/><path d="m414.085 318.735 2.166 2.166-2.166-2.166z" fill="#f9d099"/><path d="m314.472 320.9 2.166 2.166-2.166-2.165z" fill="#f9d6aa"/><path d="m327.465 320.9 2.166 2.166-2.166-2.165z" fill="#f9d099"/><path d="m340.458 320.9 2.166 2.166-2.166-2.165z" fill="#fcf1e4"/><path d="m351.286 320.9 2.165 2.166-2.165-2.165m36.813 0 2.166 2.165-2.166-2.165z" fill="#fdab33"/><path d="m416.25 320.9 2.166 2.166-2.165-2.165z" fill="#fbead6"/><path d="m316.638 323.066 2.165 2.166-2.165-2.166z" fill="#fea522"/><path d="m325.3 323.066 2.165 2.166-2.165-2.166z" fill="#fe9f11"/><path d="m342.624 323.066 2.165 2.166-2.165-2.166z" fill="#fcb144"/><path d="m351.286 323.066 2.165 2.166-2.165-2.166z" fill="#faca88"/><path d="m388.099 323.066 2.166 2.166-2.166-2.166z" fill="#f8dcbb"/><path d="m416.25 323.066 2.166 2.166-2.165-2.166z" fill="#fcb144"/><path d="m299.314 325.232 2.165 2.165-2.165-2.165z" fill="#d3d079"/><path d="m316.638 325.232 2.165 2.165-2.165-2.165zM342.624 325.232l2.165 2.165-2.165-2.165z" fill="#faca88"/><path d="m351.286 325.232 2.165 2.165-2.165-2.165m36.813 0 2.166 2.165-2.166-2.165z" fill="#fae3c9"/><path d="m418.416 325.232 2.166 2.165-2.166-2.165z" fill="#f8dcbb"/><path d="m437.906 325.232 2.165 2.165-2.165-2.165z" fill="#f2f1d7"/><path d="m445.117 326.682.723 1.444-.723-1.444z" fill="#58587b"/><path d="m300.028 328.848.723 1.443-.723-1.443z" fill="#d9d868"/><path d="m316.638 327.397 2.165 2.166-2.165-2.166z" fill="#f8dcbb"/><path d="m385.934 327.397 2.165 2.166-2.165-2.166z" fill="#f9d6aa"/><path d="m388.099 327.397 2.166 2.166-2.166-2.166z" fill="#fe9f11"/><path d="m418.416 327.397 2.166 2.166-2.166-2.166z" fill="#fcb144"/><path d="m438.62 328.848.723 1.443-.723-1.443z" fill="#f2f1d2"/><path d="m316.638 329.563 2.165 2.165-2.165-2.165z" fill="#fcf1e4"/><path d="m383.768 329.563 2.166 2.165-2.166-2.165z" fill="#fef8f1"/><path d="m385.934 329.563 2.165 2.165-2.165-2.165z" fill="#fe9f11"/><path d="m392.43 329.563-2.165 4.33 2.165-4.33z" fill="#fdab33"/><path d="m394.596 329.563 2.165 2.165-2.165-2.165z" fill="#fcb755"/><path d="m420.582 329.563 2.165 2.165-2.165-2.165z" fill="#fea522"/><path d="m422.747 329.563 2.166 2.165-2.166-2.165z" fill="#f9d099"/><path d="m444.402 329.563 2.166 2.165-2.166-2.165z" fill="#53527c"/><path d="m295.697 333.179.723 1.442-.723-1.442z" fill="#808067"/><path d="m318.803 331.728 2.166 2.166-2.166-2.166m6.497 0 2.165 2.166-2.165-2.166z" fill="#fea522"/><path d="m349.12 331.728 2.166 2.166-2.166-2.166z" fill="#fe9f11"/><path d="m383.768 331.728 2.166 2.166-2.166-2.166z" fill="#fae3c9"/><path d="m392.43 331.728 2.166 2.166-2.166-2.166z" fill="#fef8f1"/><path d="m396.761 331.728 2.166 2.166-2.166-2.166z" fill="#fcb144"/><path d="m424.913 331.728 2.165 2.166-2.165-2.166z" fill="#fcb755"/><path d="m427.078 331.728 4.331 4.331-4.331-4.331z" fill="#fef8f1"/><path d="m438.62 333.179.723 1.442-.723-1.442z" fill="#e5e59d"/><path d="m445.117 333.179.723 1.442-.723-1.442z" fill="#32327b"/><path d="m319.518 335.344.723 1.443-.723-1.443z" fill="#fcb755"/><path d="m327.465 333.894 2.166 2.165-2.166-2.165z" fill="#fef8f1"/><path d="m349.12 333.894 2.166 2.165-2.166-2.165z" fill="#fbbe66"/><path d="m383.768 333.894 2.166 2.165-2.166-2.165z" fill="#fbead6"/><path d="m388.099 333.894 2.166 2.165-2.166-2.165z" fill="#fe9f11"/><path d="m390.265 333.894 2.165 2.165-2.165-2.165z" fill="#fcf1e4"/><path d="m396.761 333.894 2.166 2.165-2.166-2.165z" fill="#fbead6"/><path d="m427.078 333.894 2.166 2.165-2.166-2.165z" fill="#fdab33"/><path d="m294.983 336.059 2.165 2.166-2.165-2.166z" fill="#667"/><path d="m301.479 336.059 2.166 2.166-2.166-2.166z" fill="#f6f6e4"/><path d="m327.465 336.059 2.166 2.166-2.166-2.166z" fill="#f9d6aa"/><path d="m344.789 336.059 2.166 2.166-2.166-2.166z" fill="#fdab33"/><path d="m346.955 336.059 2.165 2.166-2.165-2.166z" fill="#fe9f11"/><path d="m349.12 336.059 2.166 2.166-2.166-2.166z" fill="#fcf1e4"/><path d="m385.934 336.059 2.165 2.166-2.165-2.166z" fill="#fea522"/><path d="m388.099 336.059 2.166 2.166-2.166-2.166m10.828 0 2.165 2.166-2.165-2.166z" fill="#faca88"/><path d="m429.244 336.059 2.165 2.166-2.165-2.166z" fill="#fcb144"/><path d="m437.906 336.059 2.165 2.166-2.165-2.166z" fill="#dddc7a"/><path d="m294.983 338.225 2.165 2.165-2.165-2.165z" fill="#58587b"/><path d="m301.479 338.225 2.166 2.165-2.166-2.165z" fill="#f2f1d2"/><path d="m319.518 339.675.723 1.443-.723-1.443z" fill="#fcb144"/><path d="m327.465 338.225 2.166 2.165-2.166-2.165z" fill="#fea522"/><path d="m349.12 338.225 2.166 2.165-2.166-2.165z" fill="#fef8f1"/><path d="m351.286 338.225 2.165 2.165-2.165-2.165z" fill="#fea522"/><path d="m355.617 338.225 2.165 2.165-2.165-2.165z" fill="#fcb144"/><path d="m357.782 338.225 2.166 2.165-2.166-2.165z" fill="#fbead6"/><path d="m385.934 338.225 2.165 2.165-2.165-2.165z" fill="#f8dcbb"/><path d="m388.099 338.225 2.166 2.165-2.166-2.165z" fill="#fcf1e4"/><path d="m398.927 338.225 2.165 2.165-2.165-2.165z" fill="#fef8f1"/><path d="m401.092 338.225 2.166 2.165-2.166-2.165z" fill="#fe9f11"/><path d="m431.409 338.225 2.166 2.165-2.166-2.165z" fill="#fbead6"/><path d="m437.906 338.225 2.165 2.165-2.165-2.165z" fill="#d9d868"/><path d="m294.983 340.39 2.165 2.166-2.165-2.166z" fill="#3a3a7c"/><path d="m301.479 340.39 2.166 2.166-2.166-2.166z" fill="#e5e3af"/><path d="m329.63 340.39 2.166 2.166-2.165-2.166z" fill="#faca88"/><path d="m351.286 340.39 2.165 2.166-2.165-2.166z" fill="#fbead6"/><path d="m357.782 340.39 2.166 2.166-2.166-2.166z" fill="#fe9f11"/><path d="m359.948 340.39 2.165 2.166-2.165-2.166z" fill="#fcf1e4"/><path d="m383.768 340.39 2.166 2.166-2.166-2.166z" fill="#fbead6"/><path d="m385.934 340.39 2.165 2.166-2.165-2.166z" fill="#fae3c9"/><path d="m388.099 340.39 2.166 2.166-2.166-2.166z" fill="#fbead6"/><path d="m401.092 340.39 2.166 2.166-2.166-2.166m17.324 0 2.166 2.166-2.166-2.166z" fill="#fbbe66"/><path d="m420.582 340.39 2.165 2.166-2.165-2.166z" fill="#fcf1e4"/><path d="m422.747 340.39 2.166 2.166-2.166-2.166z" fill="#fef8f1"/><path d="m424.913 340.39 2.165 2.166-2.165-2.166z" fill="#f8dcbb"/><path d="m427.078 340.39 2.166 2.166-2.166-2.166z" fill="#fcb755"/><path d="m431.409 340.39 2.166 2.166-2.166-2.166z" fill="#fae3c9"/><path d="m442.237 340.39 2.165 2.166-2.165-2.166z" fill="#808067"/><path d="m294.983 342.556 2.165 2.165-2.165-2.165z" fill="#32327b"/><path d="m297.863 344.006.723 1.443-.723-1.443z" fill="#a4a43d"/><path d="m301.479 342.556 2.166 2.165-2.166-2.165z" fill="#e5e59d"/><path d="m318.803 342.556 2.166 2.165-2.166-2.165z" fill="#fbc477"/><path d="m331.796 342.556 2.166 2.165-2.166-2.165z" fill="#f9d6aa"/><path d="m353.451 342.556 2.166 2.165-2.166-2.165z" fill="#fbbe66"/><path d="m359.948 342.556 2.165 2.165-2.165-2.165z" fill="#f9d099"/><path d="m379.437 342.556 2.166 2.165-2.166-2.165z" fill="#fae3c9"/><path d="m381.603 342.556 2.165 2.165-2.165-2.165z" fill="#fcb144"/><path d="m390.265 342.556 2.165 2.165-2.165-2.165z" fill="#fae3c9"/><path d="m401.092 342.556 2.166 2.165-2.166-2.165z" fill="#f8dcbb"/><path d="m418.416 342.556 2.166 2.165-2.166-2.165z" fill="#f9d099"/><path d="m429.244 342.556 2.165 2.165-2.165-2.165z" fill="#fbc477"/><path d="m431.409 342.556 2.166 2.165-2.166-2.165z" fill="#fbead6"/><path d="m442.237 342.556 2.165 2.165-2.165-2.165z" fill="#737370"/><path d="m301.479 344.721 2.166 2.166-2.166-2.166z" fill="#d9d868"/><path d="m318.803 344.721 2.166 2.166-2.166-2.166z" fill="#f9d099"/><path d="m333.962 344.721 2.165 2.166-2.165-2.166m19.489 0 2.166 2.166-2.166-2.166z" fill="#f9d6aa"/><path d="m359.948 344.721 2.165 2.166-2.165-2.166z" fill="#fbc477"/><path d="m370.775 344.721 2.166 2.166-2.166-2.166z" fill="#fef8f1"/><path d="m372.94 344.721 2.166 2.166-2.165-2.166z" fill="#f8dcbb"/><path d="m375.106 344.721 2.166 2.166-2.166-2.166z" fill="#fbc477"/><path d="m377.272 344.721 2.165 2.166-2.165-2.166z" fill="#fea522"/><path d="m390.265 344.721 2.165 2.166-2.165-2.166z" fill="#fbead6"/><path d="m435.74 344.721 2.166 2.166-2.166-2.166z" fill="#f2f1d2"/><path d="m442.237 344.721 2.165 2.166-2.165-2.166z" fill="#58587b"/><path d="m297.148 346.887 2.166 2.165-2.166-2.165z" fill="#99994e"/><path d="m301.479 346.887 2.166 2.165-2.166-2.165z" fill="#d0d045"/><path d="m336.127 346.887 2.166 2.165-2.166-2.165z" fill="#fcb144"/><path d="m338.293 346.887 2.165 2.165-2.165-2.165z" fill="#fae3c9"/><path d="m353.451 346.887 2.166 2.165-2.166-2.165z" fill="#fef8f1"/><path d="m362.113 346.887 2.166 2.165-2.166-2.165z" fill="#fcb755"/><path d="m364.279 346.887 2.165 2.165-2.165-2.165z" fill="#fbc477"/><path d="m366.444 346.887 2.166 2.165-2.166-2.165z" fill="#fcb144"/><path d="m368.61 346.887 2.165 2.165-2.165-2.165z" fill="#fea522"/><path d="m385.934 346.887 2.165 2.165-2.165-2.165z" fill="#fe9f11"/><path d="m388.099 346.887 2.166 2.165-2.166-2.165z" fill="#f9d6aa"/><path d="m418.416 346.887 2.166 2.165-2.166-2.165z" fill="#fef8f1"/><path d="m435.74 346.887 2.166 2.165-2.166-2.165z" fill="#e0dea1"/><path d="m442.237 346.887 2.165 2.165-2.165-2.165z" fill="#3a3a7c"/><path d="m297.148 349.052 2.166 2.166-2.166-2.166z" fill="#737370"/><path d="m303.645 349.052 2.165 2.166-2.165-2.166z" fill="#fbfaf2"/><path d="m320.969 349.052 2.165 2.166-2.165-2.166z" fill="#fea522"/><path d="m340.458 349.052 2.166 2.166-2.166-2.166z" fill="#fe9f11"/><path d="m342.624 349.052 2.165 2.166-2.165-2.166z" fill="#fcb144"/><path d="m344.789 349.052 2.166 2.166-2.166-2.166z" fill="#fbc477"/><path d="m346.955 349.052 2.165 2.166-2.165-2.166z" fill="#faca88"/><path d="m349.12 349.052 2.166 2.166-2.166-2.166z" fill="#fbc477"/><path d="m351.286 349.052 2.165 2.166-2.165-2.166z" fill="#fcb144"/><path d="m353.451 349.052 2.166 2.166-2.166-2.166z" fill="#fdab33"/><path d="m383.768 349.052 2.166 2.166-2.166-2.166z" fill="#fbc477"/><path d="m385.934 349.052 2.165 2.166-2.165-2.166z" fill="#fef8f1"/><path d="m416.25 349.052 2.166 2.166-2.165-2.166z" fill="#fdab33"/><path d="m435.74 349.052 2.166 2.166-2.166-2.166z" fill="#e1e18c"/><path d="m440.786 350.503.723 1.442-.723-1.442z" fill="#a4a43d"/><path d="m442.237 349.052 2.165 2.166-2.165-2.166z" fill="#262678"/><path d="m297.148 351.218 2.166 2.165-2.166-2.165z" fill="#58587b"/><path d="m303.645 351.218 2.165 2.165-2.165-2.165z" fill="#f2f1d2"/><path d="m320.969 351.218 2.165 2.165-2.165-2.165z" fill="#faca88"/><path d="m379.437 351.218 2.166 2.165-2.166-2.165z" fill="#fe9f11"/><path d="m381.603 351.218 2.165 2.165-2.165-2.165z" fill="#fbead6"/><path d="m401.092 351.218 2.166 2.165-2.166-2.165z" fill="#fbc477"/><path d="m416.25 351.218 2.166 2.165-2.165-2.165z" fill="#faca88"/><path d="m435.74 351.218 2.166 2.165-2.166-2.165z" fill="#d4d456"/><path d="m297.148 353.383 2.166 2.166-2.166-2.166z" fill="#32327b"/><path d="m303.645 353.383 2.165 2.166-2.165-2.166z" fill="#e5e59d"/><path d="m320.969 353.383 2.165 2.166-2.165-2.166z" fill="#fef8f1"/><path d="m323.134 353.383 2.166 2.166-2.166-2.166z" fill="#fe9f11"/><path d="m379.437 353.383 2.166 2.166-2.166-2.166z" fill="#fbead6"/><path d="m401.092 353.383 2.166 2.166-2.166-2.166z" fill="#fea522"/><path d="m416.25 353.383 2.166 2.166-2.165-2.166z" fill="#fcf1e4"/><path d="m440.071 353.383 2.166 2.166-2.166-2.166z" fill="#808067"/><path d="m297.148 355.549 2.166 2.165-2.166-2.165z" fill="#0e0e6e"/><path d="m299.314 355.549 2.165 2.165-2.165-2.165z" fill="#a4a43d"/><path d="m303.645 355.549 2.165 2.165-2.165-2.165z" fill="#d9d868"/><path d="m323.134 355.549 2.166 2.165-2.166-2.165z" fill="#f8dcbb"/><path d="m398.927 355.549 2.165 2.165-2.165-2.165z" fill="#f9d6aa"/><path d="m414.085 355.549 2.166 2.165-2.166-2.165z" fill="#faca88"/><path d="m433.575 355.549 2.165 2.165-2.165-2.165z" fill="#f2f1d2"/><path d="m440.071 355.549 2.166 2.165-2.166-2.165z" fill="#58587b"/><path d="m299.314 357.714 2.165 2.166-2.165-2.166z" fill="#8d8d5b"/><path d="m325.3 357.714 2.165 2.166-2.165-2.166z" fill="#f9d6aa"/><path d="m368.61 357.714 2.165 2.166-2.165-2.166z" fill="#fdab33"/><path d="m370.775 357.714 2.166 2.166-2.166-2.166z" fill="#fff"/><path d="m374.391 358.429 1.443.723-1.443-.723z" fill="#fcb144"/><path d="m396.761 357.714-2.165 4.331 2.165-4.331z" fill="#fef8f1"/><path d="m398.927 357.714 2.165 2.166-2.165-2.166z" fill="#fe9f11"/><path d="m411.92 357.714-2.166 4.331 2.166-4.331z" fill="#fdab33"/><path d="m433.575 357.714 2.165 2.166-2.165-2.166z" fill="#e5e59d"/><path d="m440.071 357.714 2.166 2.166-2.166-2.166z" fill="#3a3a7c"/><path d="m299.314 359.88 2.165 2.165-2.165-2.165z" fill="#667"/><path d="m305.81 359.88 2.166 2.165-2.166-2.165z" fill="#f2f1d2"/><path d="m327.465 359.88 2.166 2.165-2.166-2.165z" fill="#f9d6aa"/><path d="m368.61 359.88 2.165 2.165-2.165-2.165z" fill="#fe9f11"/><path d="m370.775 359.88 2.166 2.165-2.166-2.165z" fill="#faca88"/><path d="m372.94 359.88 2.166 2.165-2.165-2.165z" fill="#fea522"/><path d="m375.106 359.88 2.166 2.165-2.166-2.165z" fill="#fcf1e4"/><path d="m396.761 359.88 2.166 2.165-2.166-2.165z" fill="#fdab33"/><path d="m411.92 359.88 2.165 2.165-2.165-2.165z" fill="#fef8f1"/><path d="m433.575 359.88 2.165 2.165-2.165-2.165z" fill="#d9d868"/><path d="m437.906 359.88 2.165 2.165-2.165-2.165z" fill="#a4a43d"/><path d="m440.071 359.88 2.166 2.165-2.166-2.165z" fill="#0e0e6e"/><path d="m299.314 362.045 2.165 2.166-2.165-2.166z" fill="#3a3a7c"/><path d="m305.81 362.045 2.166 2.166-2.166-2.166z" fill="#e5e59d"/><path d="m329.63 362.045 4.332 4.331-4.331-4.331z" fill="#fae3c9"/><path d="m331.796 362.045 2.166 2.166-2.166-2.166z" fill="#fe9f11"/><path d="m372.94 362.045 2.166 2.166-2.165-2.166z" fill="#f8dcbb"/><path d="m392.43 362.045 2.166 2.166-2.166-2.166z" fill="#fcf1e4"/><path d="m394.596 362.045 2.165 2.166-2.165-2.166z" fill="#fdab33"/><path d="m407.589 362.045 2.165 2.166-2.165-2.166z" fill="#fcb144"/><path d="m409.754 362.045 2.166 2.166-2.166-2.166z" fill="#fef8f1"/><path d="m431.409 362.045 2.166 2.166-2.166-2.166z" fill="#fbfaf2"/><path d="m437.906 362.045 2.165 2.166-2.165-2.166z" fill="#8d8d5b"/><path d="m299.314 364.21 2.165 2.166-2.165-2.165z" fill="#0e0e6e"/><path d="m301.479 364.21 2.166 2.166-2.166-2.165z" fill="#a4a43d"/><path d="m305.81 364.21 2.166 2.166-2.166-2.165z" fill="#d4d456"/><path d="m370.775 364.21 2.166 2.166-2.166-2.165z" fill="#f9d6aa"/><path d="m390.265 364.21 2.165 2.166-2.165-2.165z" fill="#f9d099"/><path d="m392.43 364.21 2.166 2.166-2.166-2.165z" fill="#fe9f11"/><path d="m405.423 364.21 2.166 2.166-2.166-2.165z" fill="#faca88"/><path d="m431.409 364.21 2.166 2.166-2.166-2.165z" fill="#eeedc1"/><path d="m437.906 364.21 2.165 2.166-2.165-2.165z" fill="#58587b"/><path d="m301.479 366.376 2.166 2.166-2.166-2.166z" fill="#737370"/><path d="m307.976 366.376 2.165 2.166-2.165-2.166z" fill="#f6f6e4"/><path d="m331.796 366.376 2.166 2.166-2.166-2.166z" fill="#fbbe66"/><path d="m366.444 366.376 2.166 2.166-2.166-2.166z" fill="#fcb144"/><path d="m369.324 367.827.723 1.442-.723-1.442z" fill="#f8dcbb"/><path d="m385.934 366.376 2.165 2.166-2.165-2.166z" fill="#fbbe66"/><path d="m388.099 366.376 2.166 2.166-2.166-2.166z" fill="#fe9f11"/><path d="m401.092 366.376 2.166 2.166-2.166-2.166z" fill="#fbc477"/><path d="m403.258 366.376 2.165 2.166-2.165-2.166z" fill="#fcf1e4"/><path d="m431.409 366.376 2.166 2.166-2.166-2.166z" fill="#d3d079"/><path d="m435.74 366.376 2.166 2.166-2.166-2.166z" fill="#a4a43d"/><path d="m437.906 366.376 2.165 2.166-2.165-2.166z" fill="#262678"/><path d="m301.479 368.542 2.166 2.165-2.166-2.165z" fill="#49497d"/><path d="m307.976 368.542 2.165 2.165-2.165-2.165z" fill="#e0dea1"/><path d="m329.63 368.542 2.166 2.165-2.165-2.165z" fill="#fae3c9"/><path d="m359.948 368.542 2.165 2.165-2.165-2.165z" fill="#fdab33"/><path d="m362.113 368.542 2.166 2.165-2.166-2.165z" fill="#fbc477"/><path d="m364.279 368.542 2.165 2.165-2.165-2.165z" fill="#fbead6"/><path d="m370.775 368.542 2.166 2.165-2.166-2.165z" fill="#fcb144"/><path d="m398.927 368.542 2.165 2.165-2.165-2.165z" fill="#f9d6aa"/><path d="m435.74 368.542 2.166 2.165-2.166-2.165z" fill="#99994e"/><path d="m301.479 370.707 2.166 2.166-2.166-2.166z" fill="#0e0e6e"/><path d="m303.645 370.707 2.165 2.166-2.165-2.166z" fill="#a4a43d"/><path d="m307.976 370.707 2.165 2.166-2.165-2.166z" fill="#d4d456"/><path d="m327.465 370.707 2.166 2.166-2.166-2.166z" fill="#f9d099"/><path d="m329.63 370.707 2.166 2.166-2.165-2.166m10.827 0 2.166 2.166-2.166-2.166z" fill="#fe9f11"/><path d="m342.624 370.707 2.165 2.166-2.165-2.166z" fill="#f9d6aa"/><path d="m344.789 370.707 2.166 2.166-2.166-2.166z" fill="#f9d099"/><path d="m353.451 370.707 2.166 2.166-2.166-2.166z" fill="#f9d6aa"/><path d="m355.617 370.707 2.165 2.166-2.165-2.166z" fill="#fae3c9"/><path d="m357.782 370.707 2.166 2.166-2.166-2.166z" fill="#fef8f1"/><path d="m375.106 370.707 2.166 2.166-2.166-2.166z" fill="#fbead6"/><path d="m377.272 370.707 2.165 2.166-2.165-2.166z" fill="#fae3c9"/><path d="m379.437 370.707 2.166 2.166-2.166-2.166z" fill="#faca88"/><path d="m381.603 370.707 2.165 2.166-2.165-2.166z" fill="#fbc477"/><path d="m383.768 370.707 2.166 2.166-2.166-2.166z" fill="#fdab33"/><path d="m394.596 370.707 2.165 2.166-2.165-2.166z" fill="#fe9f11"/><path d="m396.761 370.707 2.166 2.166-2.166-2.166z" fill="#f9d6aa"/><path d="m429.244 370.707 2.165 2.166-2.165-2.166z" fill="#e5e3af"/><path d="m435.74 370.707 2.166 2.166-2.166-2.166z" fill="#667"/><path d="m303.645 372.873 2.165 2.165-2.165-2.165z" fill="#737370"/><path d="m310.141 372.873 2.166 2.165-2.166-2.165z" fill="#f2f1d7"/><path d="m325.3 372.873 2.165 2.165-2.165-2.165z" fill="#fea522"/><path d="m336.127 372.873 2.166 2.165-2.166-2.165z" fill="#fe9f11"/><path d="m338.293 372.873 2.165 2.165-2.165-2.165z" fill="#fbbe66"/><path d="m340.458 372.873 2.166 2.165-2.166-2.165z" fill="#fcf1e4"/><path d="m392.43 372.873 2.166 2.165-2.166-2.165z" fill="#fea522"/><path d="m394.596 372.873 2.165 2.165-2.165-2.165z" fill="#fbead6"/><path d="m429.244 372.873 2.165 2.165-2.165-2.165z" fill="#dddc7a"/><path d="m433.575 372.873 2.165 2.165-2.165-2.165z" fill="#a4a43d"/><path d="m435.74 372.873 2.166 2.165-2.166-2.165z" fill="#262678"/><path d="m303.645 375.038 2.165 2.166-2.165-2.166z" fill="#49497d"/><path d="m306.525 376.489.723 1.442-.723-1.442z" fill="#a4a43d"/><path d="m310.141 375.038 2.166 2.166-2.166-2.166z" fill="#d3d079"/><path d="m327.465 375.038 2.166 2.166-2.166-2.166z" fill="#f9d099"/><path d="m329.63 375.038 2.166 2.166-2.165-2.166z" fill="#fcb144"/><path d="m331.796 375.038 2.166 2.166-2.166-2.166z" fill="#faca88"/><path d="m333.962 375.038 2.165 2.166-2.165-2.166z" fill="#f8dcbb"/><path d="m336.127 375.038 2.166 2.166-2.166-2.166z" fill="#fef8f1"/><path d="m383.768 375.038 2.166 2.166-2.166-2.166z" fill="#f8dcbb"/><path d="m392.43 375.038 2.166 2.166-2.166-2.166z" fill="#fcf1e4"/><path d="m427.078 375.038 2.166 2.166-2.166-2.166z" fill="#f6f6e4"/><path d="m433.575 375.038 2.165 2.166-2.165-2.166z" fill="#8d8d5b"/><path d="m312.307 377.204 2.165 2.165-2.165-2.165z" fill="#fbfaf2"/><path d="m383.768 377.204 2.166 2.165-2.166-2.165z" fill="#fbbe66"/><path d="m390.265 377.204 2.165 2.165-2.165-2.165z" fill="#faca88"/><path d="m427.078 377.204 2.166 2.165-2.166-2.165z" fill="#e1e18c"/><path d="m433.575 377.204 2.165 2.165-2.165-2.165z" fill="#49497d"/><path d="m305.81 379.369 2.166 2.166-2.166-2.166z" fill="#58587b"/><path d="m312.307 379.369 2.165 2.166-2.165-2.166z" fill="#e5e59d"/><path d="m383.768 379.369 2.166 2.166-2.166-2.166z" fill="#fe9f11"/><path d="m388.099 379.369 2.166 2.166-2.166-2.166z" fill="#fdab33"/><path d="m424.913 379.369 2.165 2.166-2.165-2.166z" fill="#fbfaf2"/><path d="m431.409 379.369 2.166 2.166-2.166-2.166z" fill="#a4a43d"/><path d="m433.575 379.369 2.165 2.166-2.165-2.166z" fill="#0e0e6e"/><path d="m305.81 381.535 2.166 2.165-2.166-2.165z" fill="#1b1b74"/><path d="m307.976 381.535 2.165 2.165-2.165-2.165z" fill="#a4a43d"/><path d="m312.307 381.535 2.165 2.165-2.165-2.165z" fill="#d0d045"/><path d="m381.603 381.535 2.165 2.165-2.165-2.165z" fill="#fbead6"/><path d="m385.934 381.535 2.165 2.165-2.165-2.165z" fill="#fe9f11"/><path d="m388.099 381.535 2.166 2.165-2.166-2.165z" fill="#fbead6"/><path d="m424.913 381.535 2.165 2.165-2.165-2.165z" fill="#e5e59d"/><path d="m431.409 381.535 2.166 2.165-2.166-2.165z" fill="#667"/><path d="m307.976 383.7 2.165 2.166-2.165-2.166z" fill="#6e6c70"/><path d="m314.472 383.7 2.166 2.166-2.166-2.166z" fill="#e5e3af"/><path d="m382.317 385.15.723 1.443-.723-1.442z" fill="#faca88"/><path d="m385.934 383.7 2.165 2.166-2.165-2.166z" fill="#fae3c9"/><path d="m422.747 383.7 2.166 2.166-2.166-2.166z" fill="#fbfaf2"/><path d="m429.244 383.7 2.165 2.166-2.165-2.166z" fill="#a4a43d"/><path d="m431.409 383.7 2.166 2.166-2.166-2.166m-123.433 2.166 2.165 2.165-2.165-2.165z" fill="#1b1b74"/><path d="m310.141 385.866 2.166 2.165-2.166-2.165z" fill="#a4a43d"/><path d="m314.472 385.866 2.166 2.165-2.166-2.165z" fill="#d0d045"/><path d="m316.638 385.866 2.165 2.165-2.165-2.165z" fill="#fbfaf2"/><path d="m383.768 385.866 2.166 2.165-2.166-2.165z" fill="#f9d6aa"/><path d="m422.747 385.866 2.166 2.165-2.166-2.165z" fill="#e5e59d"/><path d="m429.244 385.866 2.165 2.165-2.165-2.165M310.14 388.03l2.166 2.166-2.166-2.166z" fill="#6e6c70"/><path d="m316.638 388.031 2.165 2.166-2.165-2.166z" fill="#8cbf84"/><path d="M317.569 388.031c7.52 15.828 34.121 53.17 54.44 52.442 19.735-.706 42.02-37.14 50.738-52.442H317.569z" fill="#0cf"/><path d="m427.078 388.031 2.166 2.166-2.166-2.166z" fill="#a4a43d"/><path d="m429.244 388.031 2.165 2.166-2.165-2.166m-119.103 2.166 2.166 2.165-2.166-2.165z" fill="#1b1b74"/><path d="m312.307 390.197 2.165 2.165-2.165-2.165z" fill="#a4a43d"/><path d="m316.638 390.197 2.165 2.165-2.165-2.165z" fill="#adb333"/><path d="m318.803 390.197 2.166 2.165-2.166-2.165z" fill="#1ac5b5"/><path d="m420.582 390.197 2.165 2.165-2.165-2.165z" fill="#68b070"/><path d="m427.078 390.197 2.166 2.165-2.166-2.165z" fill="#667"/><path d="m312.307 392.362 2.165 2.166-2.165-2.166z" fill="#58587b"/><path d="m318.803 392.362 2.166 2.166-2.166-2.166z" fill="#7fb15c"/><path d="m418.416 392.362 2.166 2.166-2.166-2.166z" fill="#27c2aa"/><path d="m424.913 392.362-2.166 4.331 2.166-4.331z" fill="#a4a43d"/><path d="m427.078 392.362 2.166 2.166-2.166-2.166m-114.771 2.166 2.165 2.165-2.165-2.165z" fill="#0e0e6e"/><path d="m314.472 394.528 4.331 4.33-4.331-4.33z" fill="#a4a43d"/><path d="m320.969 394.528 2.165 2.165-2.165-2.165z" fill="#34be9e"/><path d="m418.416 394.528 2.166 2.165-2.166-2.165z" fill="#96b247"/><path d="m424.913 394.528 2.165 2.165-2.165-2.165z" fill="#53527c"/><path d="m314.472 396.693 2.166 2.166-2.166-2.166z" fill="#3a3a7c"/><path d="m320.969 396.693 2.165 2.166-2.165-2.166z" fill="#a2b23d"/><path d="m323.134 396.693 2.166 2.166-2.166-2.166z" fill="#0dc9c1"/><path d="m416.25 396.693 2.166 2.166-2.165-2.166z" fill="#5bb47c"/><path d="m422.747 396.693 2.166 2.166-2.166-2.166z" fill="#8d8d5b"/><path d="m316.638 398.859 2.165 2.165-2.165-2.165z" fill="#737370"/><path d="m323.134 398.859 2.166 2.165-2.166-2.165z" fill="#74b166"/><path d="m414.085 398.859 2.166 2.165-2.166-2.165z" fill="#27c2aa"/><path d="m420.582 398.859-2.166 4.33 2.166-4.33z" fill="#a4a43d"/><path d="m422.747 398.859 2.166 2.165-2.166-2.165z" fill="#262678"/><path d="m316.638 401.024 2.165 2.166-2.165-2.166z" fill="#0e0e6e"/><path d="m318.803 401.024 4.331 4.331-4.331-4.331z" fill="#a4a43d"/><path d="m325.3 401.024 2.165 2.166-2.165-2.166z" fill="#42bb92"/><path d="m411.92 401.024 2.165 2.166-2.165-2.166z" fill="#0dc9c1"/><path d="m414.085 401.024 2.166 2.166-2.166-2.166z" fill="#96b247"/><path d="m420.582 401.024 2.165 2.166-2.165-2.166z" fill="#58587b"/><path d="m318.803 403.19 2.166 2.165-2.166-2.165z" fill="#3a3a7c"/><path d="m325.3 403.19 2.165 2.165-2.165-2.165z" fill="#adb333"/><path d="m327.465 403.19 2.166 2.165-2.166-2.165z" fill="#27c2aa"/><path d="m411.92 403.19 2.165 2.165-2.165-2.165z" fill="#74b166"/><path d="m418.416 403.19 2.166 2.165-2.166-2.165z" fill="#8d8d5b"/><path d="m320.969 405.355 2.165 2.166-2.165-2.166z" fill="#6e6c70"/><path d="m327.465 405.355 2.166 2.166-2.166-2.166z" fill="#96b247"/><path d="m329.63 405.355 2.166 2.166-2.165-2.166z" fill="#0dc9c1"/><path d="m409.754 405.355 2.166 2.166-2.166-2.166z" fill="#42bb92"/><path d="m416.25 405.355-4.33 6.497 4.33-6.497z" fill="#a4a43d"/><path d="m418.416 405.355 2.166 2.166-2.166-2.166z" fill="#1b1b74"/><path d="m320.969 407.52 2.165 2.166-2.165-2.165z" fill="#0e0e6e"/><path d="m323.134 407.52 2.166 2.166-2.166-2.165z" fill="#8d8d5b"/><path d="m329.63 407.52 2.166 2.166-2.165-2.165z" fill="#7fb15c"/><path d="m407.589 407.52 2.165 2.166-2.165-2.165z" fill="#34be9e"/><path d="m416.25 407.52 2.166 2.166-2.165-2.165z" fill="#3a3a7c"/><path d="m323.134 409.686 2.166 2.166-2.166-2.166z" fill="#1b1b74"/><path d="m325.3 409.686 23.82 23.82-23.82-23.82z" fill="#a4a43d"/><path d="m331.796 409.686 2.166 2.166-2.166-2.166z" fill="#74b166"/><path d="m405.423 409.686 2.166 2.166-2.166-2.166z" fill="#27c2aa"/><path d="m407.589 409.686 2.165 2.166-2.165-2.166z" fill="#adb333"/><path d="m414.085 409.686 2.166 2.166-2.166-2.166z" fill="#667"/><path d="m325.3 411.852 2.165 2.165-2.165-2.165z" fill="#32327b"/><path d="m333.962 411.852 2.165 2.165-2.165-2.165z" fill="#42bb92"/><path d="m403.258 411.852-8.662 10.827 8.662-10.827z" fill="#0dc9c1"/><path d="m405.423 411.852 2.166 2.165-2.166-2.165z" fill="#adb333"/><path d="m411.92 411.852 2.165 2.165-2.165-2.165z" fill="#737370"/><path d="m327.465 414.017 2.166 2.166-2.166-2.166z" fill="#49497d"/><path d="m336.127 414.017 2.166 2.166-2.166-2.166z" fill="#42bb92"/><path d="m403.258 414.017 2.165 2.166-2.165-2.166z" fill="#96b247"/><path d="m409.754 414.017-2.165 4.331 2.165-4.331z" fill="#8d8d5b"/><path d="m411.92 414.017 2.165 2.166-2.165-2.166z" fill="#0e0e6e"/><path d="m329.63 416.183 2.166 2.165-2.165-2.165z" fill="#53527c"/><path d="m338.293 416.183 2.165 2.165-2.165-2.165z" fill="#42bb92"/><path d="m401.092 416.183 2.166 2.165-2.166-2.165z" fill="#96b247"/><path d="m409.754 416.183 2.166 2.165-2.166-2.165z" fill="#0e0e6e"/><path d="m331.796 418.348 2.166 2.166-2.166-2.166z" fill="#6e6c70"/><path d="m340.458 418.348 2.166 2.166-2.166-2.166z" fill="#42bb92"/><path d="m398.927 418.348 2.165 2.166-2.165-2.166z" fill="#96b247"/><path d="m405.423 418.348-4.331 6.497 4.331-6.497z" fill="#a4a43d"/><path d="m407.589 418.348 2.165 2.166-2.165-2.166z" fill="#262678"/><path d="m333.962 420.514 2.165 2.165-2.165-2.165z" fill="#6e6c70"/><path d="m342.624 420.514 2.165 2.165-2.165-2.165z" fill="#42bb92"/><path d="m396.761 420.514 2.166 2.165-2.166-2.165z" fill="#96b247"/><path d="m405.423 420.514 2.166 2.165-2.166-2.165z" fill="#262678"/><path d="m336.127 422.679 2.166 2.166-2.166-2.166z" fill="#6e6c70"/><path d="m344.789 422.679 2.166 2.166-2.166-2.166z" fill="#68b070"/><path d="m392.43 422.679 2.166 2.166-2.166-2.166z" fill="#27c2aa"/><path d="m394.596 422.679 2.165 2.166-2.165-2.166z" fill="#adb333"/><path d="m403.258 422.679 2.165 2.166-2.165-2.166z" fill="#262678"/><path d="m338.293 424.845 2.165 2.165-2.165-2.165z" fill="#667"/><path d="m346.955 424.845 2.165 2.165-2.165-2.165z" fill="#74b166"/><path d="m390.265 424.845 2.165 2.165-2.165-2.165z" fill="#34be9e"/><path d="m392.43 424.845 2.166 2.165-2.166-2.165z" fill="#adb333"/><path d="m398.927 424.845-2.166 4.33 2.166-4.33z" fill="#8d8d5b"/><path d="m401.092 424.845 2.166 2.165-2.166-2.165z" fill="#262678"/><path d="m340.458 427.01 2.166 2.166-2.166-2.166z" fill="#49497d"/><path d="m349.12 427.01 2.166 2.166-2.166-2.166z" fill="#96b247"/><path d="m351.286 427.01 2.165 2.166-2.165-2.166z" fill="#0dc9c1"/><path d="m388.099 427.01 2.166 2.166-2.166-2.166z" fill="#42bb92"/><path d="m398.927 427.01 2.165 2.166-2.165-2.166z" fill="#0e0e6e"/><path d="m342.624 429.176 2.165 2.165-2.165-2.165z" fill="#49497d"/><path d="m351.286 429.176 2.165 2.165-2.165-2.165z" fill="#a2b23d"/><path d="m353.451 429.176 2.166 2.165-2.166-2.165z" fill="#27c2aa"/><path d="m385.934 429.176 2.165 2.165-2.165-2.165z" fill="#74b166"/><path d="m392.43 429.176-6.496 8.662 6.496-8.662z" fill="#a4a43d"/><path d="m394.596 429.176 2.165 2.165-2.165-2.165z" fill="#808067"/><path d="m396.761 429.176 2.166 2.165-2.166-2.165z" fill="#0e0e6e"/><path d="m344.789 431.341 2.166 2.166-2.166-2.166z" fill="#262678"/><path d="m353.451 431.341 2.166 2.166-2.166-2.166z" fill="#adb333"/><path d="m355.617 431.341 2.165 2.166-2.165-2.166z" fill="#42bb92"/><path d="m381.603 431.341 2.165 2.166-2.165-2.166z" fill="#0dc9c1"/><path d="m383.768 431.341 2.166 2.166-2.166-2.166z" fill="#96b247"/><path d="m392.43 431.341 2.166 2.166-2.166-2.166z" fill="#6e6c70"/><path d="m346.955 433.507 2.165 2.165-2.165-2.165z" fill="#1b1b74"/><path d="m349.12 433.507 2.166 2.165-2.166-2.165z" fill="#8d8d5b"/><path d="m357.782 433.507 2.166 2.165-2.166-2.165z" fill="#74b166"/><path d="m359.948 433.507 2.165 2.165-2.165-2.165z" fill="#0dc9c1"/><path d="m379.437 433.507 2.166 2.165-2.166-2.165z" fill="#34be9e"/><path d="m381.603 433.507 2.165 2.165-2.165-2.165z" fill="#adb333"/><path d="m390.265 433.507 2.165 2.165-2.165-2.165z" fill="#49497d"/><path d="m349.12 435.672 2.166 2.166-2.166-2.166z" fill="#0e0e6e"/><path d="m351.286 435.672 2.165 2.166-2.165-2.166z" fill="#6e6c70"/><path d="m353.451 435.672 4.331 4.331-4.331-4.331z" fill="#a4a43d"/><path d="m359.948 435.672 2.165 2.166-2.165-2.166z" fill="#96b247"/><path d="m362.113 435.672 2.166 2.166-2.166-2.166z" fill="#27c2aa"/><path d="m377.272 435.672 2.165 2.166-2.165-2.166z" fill="#68b070"/><path d="m388.099 435.672 2.166 2.166-2.166-2.166z" fill="#32327b"/><path d="m353.451 437.838 2.166 2.165-2.166-2.165z" fill="#49497d"/><path d="m364.279 437.838 2.165 2.165-2.165-2.165z" fill="#5bb47c"/><path d="m372.94 437.838 2.166 2.165-2.165-2.165z" fill="#27c2aa"/><path d="m375.106 437.838 2.166 2.165-2.166-2.165z" fill="#96b247"/><path d="m381.603 437.838-2.166 4.33 2.166-4.33z" fill="#a4a43d"/><path d="m383.768 437.838 2.166 2.165-2.166-2.165z" fill="#808067"/><path d="m385.934 437.838 2.165 2.165-2.165-2.165z" fill="#0e0e6e"/><path d="m355.617 440.003 2.165 2.166-2.165-2.166z" fill="#262678"/><path d="m357.782 440.003 2.166 2.166-2.166-2.166z" fill="#8d8d5b"/><path d="m366.444 440.003 2.166 2.166-2.166-2.166z" fill="#8bb252"/><path d="m368.61 440.003 2.165 2.166-2.165-2.166z" fill="#1ac5b5"/><path d="m370.775 440.003 2.166 2.166-2.166-2.166z" fill="#5bb47c"/><path d="m381.603 440.003 2.165 2.166-2.165-2.166z" fill="#58587b"/><path d="m357.782 442.169 2.166 2.165-2.166-2.165z" fill="#0e0e6e"/><path d="m359.948 442.169 2.165 2.165-2.165-2.165z" fill="#667"/><path d="m362.113 442.169 2.166 2.165-2.166-2.165z" fill="#a4a43d"/><path d="m377.272 442.169 2.165 2.165-2.165-2.165z" fill="#99994e"/><path d="m379.437 442.169 2.166 2.165-2.166-2.165m-17.324 2.165 2.166 2.166-2.166-2.166z" fill="#32327b"/><path d="m364.279 444.334 2.165 2.166-2.165-2.166z" fill="#99994e"/><path d="m372.94 444.334 2.166 2.166-2.165-2.166z" fill="#a4a43d"/><path d="m375.106 444.334 2.166 2.166-2.166-2.166z" fill="#667"/><path d="m377.272 444.334 2.165 2.166-2.165-2.166m-12.993 2.166 2.165 2.165-2.165-2.165z" fill="#0e0e6e"/><path d="m366.444 446.5 2.166 2.165-2.166-2.165z" fill="#667"/><path d="m368.61 446.5 2.165 2.165-2.165-2.165z" fill="#a4a43d"/><path d="m370.775 446.5 2.166 2.165-2.166-2.165z" fill="#99994e"/><path d="m372.94 446.5 2.166 2.165-2.165-2.165z" fill="#32327b"/><path d="m368.61 448.665 2.165 2.166-2.165-2.166z" fill="#262678"/><path d="m370.775 448.665 2.166 2.166-2.166-2.166z" fill="#0e0e6e"/><path d="M372.94 303.577c3.342 7.859 14.055 16.537 17 20.79-3.749 4.254-4.498 3.79-4.006 11.692 6.518-6.82 6.635-7.53 10.827-6.496 9.184 9.164 1.644 28.846-5.946 33.125-7.588 4.565-6.211-.158-17.584 5.563 5.214 4.46 11.256-.654 16.193.713 2.683 3.183-1.275 8.984.81 14.448 4.364-.42 3.84-9.23 4.855-12.423 3.188-11.703 22.353-19.865 23.327-30.599 4.04-1.897 8.08-.593 12.993 2.166-2.447-10.057-10.542-9.949-12.711-13.09-5.165-7.892-9.743-16.896-20.774-19.231-8.374-1.774-7.748.533-13.114-3.127-3.335-2.603-13.491-7.523-11.867-3.532z" fill="#f90"/><path d="M397.017 312.505a1.745 1.745 0 1 1-3.491 0 1.745 1.745 0 0 1 3.49 0z" fill-rule="evenodd" fill="#fff"/><path d="M346.159 336.919c5.387-6.626 8.056-20.152 10.441-24.743 5.512 1.327 5.452 2.206 12.209-1.92-9.075-2.577-9.758-2.348-10.802-6.538 3.812-12.402 24.737-14.93 32.066-10.218 7.581 4.577 2.762 5.566 13.134 12.949 1.506-6.694-5.837-9.647-6.936-14.651 1.562-3.86 8.54-3.07 12.397-7.466-2.41-3.662-9.954.917-13.253 1.511-11.836 2.649-28.005-10.483-37.951-6.33-3.565-2.687-4.3-6.867-4.156-12.5-7.748 6.862-3.87 13.968-5.634 17.354-4.566 8.254-10.388 16.507-7.3 27.352 2.344 8.232 4.091 6.601 3.362 13.056-.744 4.164-.35 15.443 2.42 12.142z" fill="#f90"/><path d="M342.805 311.46a1.745 1.745 0 1 1 1.631 3.087 1.745 1.745 0 0 1-1.63-3.087z" fill-rule="evenodd" fill="#fff"/><path d="M389.94 341.57c-8.457-1.184-21.414 3.528-26.576 3.862-1.715-5.403-.932-5.807-7.958-9.455 2.488 9.1 3.037 9.566-.008 12.627-12.586 3.152-25.573-13.449-25.332-22.158-.005-8.856 3.334-5.243 4.288-17.938-6.508 2.173-5.237 9.985-8.951 13.514-4.11.66-7.045-5.721-12.802-6.748-1.887 3.957 5.934 8.045 8.148 10.56 8.39 8.76 5.515 29.391 14.214 35.755-.455 4.44-3.652 7.231-8.548 10.022 9.88 3.082 13.957-3.912 17.767-4.154 9.425-.363 19.5.35 27.184-7.902 5.833-6.265 3.533-6.916 9.435-9.63 3.948-1.518 13.397-7.69 9.14-8.353z" fill="#f90"/><path d="M369.887 357.608a1.745 1.745 0 1 1 1.798-2.992 1.745 1.745 0 0 1-1.798 2.992z" fill-rule="evenodd" fill="#fff"/></g></svg>