<svg xmlns="http://www.w3.org/2000/svg" height="512" width="512"><defs><clipPath id="a" clipPathUnits="userSpaceOnUse"><path fill="gray" d="M0 0h512v512H0z"/></clipPath></defs><g clip-path="url(#a)"><path fill="#39c" d="M0 0v512.006h768.01V0H0z"/><path fill="#ff0" d="M0 341.338v28.445h768.01v-28.445H0zM0 398.227v28.445h768.01v-28.445H0z"/><path fill="#9cc" d="m122.065 28.067 2.38 2.38-2.38-2.38zM119.685 32.827l2.38 2.38-2.38-2.38m4.76 0 2.381 2.38-2.38-2.38z"/><path fill="#ccf" d="m119.685 35.208 2.38 2.38-2.38-2.38m4.76 0 2.381 2.38-2.38-2.38z"/><path fill="#6cc" d="m117.305 39.969 2.38 2.38-2.38-2.38z"/><path fill="#c66" d="m122.065 39.969 2.38 2.38-2.38-2.38z"/><path fill="#6cc" d="m126.826 39.969 2.38 2.38-2.38-2.38z"/><path fill="#ccf" d="m117.305 42.349 2.38 2.38-2.38-2.38zM126.826 42.349l2.38 2.38-2.38-2.38z"/><path fill="#fcc" d="m119.685 44.73 2.38 2.38-2.38-2.38m4.76 0 2.381 2.38-2.38-2.38z"/><path fill="#6cc" d="m114.924 47.11 2.38 2.38-2.38-2.38z"/><path d="M121.673 32.904 104.986 96.16l-63.442 17.23 63.259 16.51 16.87 63.257L138.54 129.9l63.26-16.87-63.26-16.87-16.867-63.256z" stroke="#fff" stroke-width="2.9755" fill="#c00"/><path fill="#6cc" d="m129.207 47.11 2.38 2.38-2.38-2.38z"/><path fill="#9cf" d="m114.924 49.49 2.38 2.38-2.38-2.38m14.283 0 2.38 2.38-2.38-2.38z"/><path fill="#fcc" d="m117.305 51.87 2.38 2.381-2.38-2.38m9.521 0 2.38 2.38-2.38-2.38z"/><path fill="#69c" d="m112.544 54.251 2.38 2.38-2.38-2.38z"/><path fill="#c33" d="m118.097 55.839.794 1.586-.794-1.586m9.522 0 .794 1.586-.794-1.586z"/><path fill="#69c" d="m131.587 54.251 2.38 2.38-2.38-2.38z"/><path fill="#9cf" d="m112.544 56.631 2.38 2.38-2.38-2.38m19.043 0 2.38 2.38-2.38-2.38z"/><path fill="#fcc" d="m114.924 59.012 2.38 2.38-2.38-2.38m14.283 0 2.38 2.38-2.38-2.38z"/><path fill="#69c" d="m110.163 61.392 2.38 2.38-2.38-2.38zM133.968 61.392l2.38 2.38-2.38-2.38z"/><path fill="#9cc" d="m110.163 63.773 2.38 2.38-2.38-2.38m23.805 0 2.38 2.38-2.38-2.38z"/><path fill="#cff" d="m110.163 66.153 2.38 2.38-2.38-2.38m23.805 0 2.38 2.38-2.38-2.38z"/><path fill="#69c" d="m107.783 68.533 2.38 2.38-2.38-2.38z"/><path fill="#fcc" d="m112.544 68.533 2.38 2.38-2.38-2.38m19.043 0 2.38 2.38-2.38-2.38z"/><path fill="#69c" d="m136.348 68.533 2.38 2.38-2.38-2.38z"/><path fill="#9cc" d="m107.783 70.914 2.38 2.38-2.38-2.38z"/><path fill="#c33" d="m113.337 72.502.793 1.586-.793-1.586m19.043 0 .793 1.586-.793-1.586z"/><path fill="#9cc" d="m136.348 70.914 2.38 2.38-2.38-2.38z"/><path fill="#cff" d="m107.783 73.294 2.38 2.38-2.38-2.38m28.565 0 2.38 2.38-2.38-2.38z"/><path fill="#fcc" d="m110.163 75.675 2.38 2.38-2.38-2.38m23.805 0 2.38 2.38-2.38-2.38z"/><path fill="#9cc" d="m105.403 78.055 2.38 2.38-2.38-2.38z"/><path fill="#c33" d="m110.956 79.643.794 1.586-.794-1.586m23.804 0 .794 1.586-.794-1.586z"/><path fill="#9cc" d="m138.728 78.055 2.38 2.38-2.38-2.38z"/><path fill="#ccf" d="m105.403 80.435 2.38 2.38-2.38-2.38m33.325 0 2.38 2.38-2.38-2.38z"/><path fill="#fcc" d="m107.783 82.816 2.38 2.38-2.38-2.38m28.565 0 2.38 2.38-2.38-2.38z"/><path fill="#9cc" d="m103.022 85.196 2.38 2.38-2.38-2.38z"/><path fill="#c33" d="m108.576 86.784.793 1.587-.793-1.587m28.565 0 .793 1.587-.793-1.587z"/><path fill="#9cc" d="m141.109 85.196 2.38 2.38-2.38-2.38z"/><path fill="#ccf" d="m103.022 87.577 2.38 2.38-2.38-2.38m38.087 0 2.38 2.38-2.38-2.38z"/><path fill="#fcc" d="m105.403 89.957 2.38 2.38-2.38-2.38m33.325 0 2.38 2.38-2.38-2.38z"/><path fill="#9cc" d="m100.642 92.337 2.38 2.38-2.38-2.38z"/><path fill="#c33" d="m105.403 92.337 2.38 2.38-2.38-2.38m33.325 0 2.38 2.38-2.38-2.38z"/><path fill="#9cc" d="m143.49 92.337 2.38 2.38-2.38-2.38m-49.99 2.38 2.381 2.381-2.38-2.38z"/><path fill="#ccf" d="m95.881 94.718 2.38 2.38-2.38-2.38m52.369 0 2.38 2.38-2.38-2.38z"/><path fill="#9cc" d="m150.63 94.718 2.38 2.38-2.38-2.38m-64.27 2.38 2.38 2.38-2.38-2.38z"/><path fill="#ccf" d="m88.74 97.098 2.38 2.38-2.38-2.38z"/><path fill="#fcc" d="m98.261 97.098 2.38 2.38-2.38-2.38z"/><path fill="#c33" d="m100.642 97.098 2.38 2.38-2.38-2.38m42.847 0 2.38 2.38-2.38-2.38z"/><path fill="#fcc" d="m145.87 97.098 2.38 2.38-2.38-2.38z"/><path fill="#ccf" d="m155.391 97.098 2.38 2.38-2.38-2.38z"/><path fill="#9cc" d="m157.771 97.098 2.38 2.38-2.38-2.38z"/><path fill="#69c" d="m76.838 99.479 2.38 2.38-2.38-2.38z"/><path fill="#9cc" d="m79.218 99.479 2.38 2.38-2.38-2.38z"/><path fill="#cff" d="m81.599 99.479 2.38 2.38-2.38-2.38z"/><path fill="#fcc" d="m91.12 99.479 2.38 2.38-2.38-2.38z"/><path fill="#c33" d="m95.088 100.271 1.587.794-1.587-.794m54.75 0 1.586.794-1.586-.794z"/><path fill="#fcc" d="m153.01 99.479 2.381 2.38-2.38-2.38z"/><path fill="#cff" d="m162.532 99.479 2.38 2.38-2.38-2.38z"/><path fill="#9cc" d="m164.913 99.479 2.38 2.38-2.38-2.38z"/><path fill="#69c" d="m167.293 99.479 2.38 2.38-2.38-2.38m-97.596 2.38 2.38 2.38-2.38-2.38z"/><path fill="#9cc" d="m72.077 101.859 2.38 2.38-2.38-2.38z"/><path fill="#cff" d="m74.457 101.859 2.38 2.38-2.38-2.38z"/><path fill="#fcc" d="m83.98 101.859 2.38 2.38-2.38-2.38z"/><path fill="#c33" d="m87.947 102.652 1.587.793-1.587-.793m69.032 0 1.587.793-1.587-.793z"/><path fill="#fcc" d="m160.152 101.859 2.38 2.38-2.38-2.38z"/><path fill="#cff" d="m169.673 101.859 2.38 2.38-2.38-2.38z"/><path fill="#9cc" d="m172.054 101.859 2.38 2.38-2.38-2.38z"/><path fill="#69c" d="m174.434 101.859 2.38 2.38-2.38-2.38m-111.879 2.38 2.38 2.38-2.38-2.38z"/><path fill="#9cf" d="m64.936 104.24 2.38 2.38-2.38-2.38z"/><path fill="#fcc" d="m76.838 104.24 2.38 2.38-2.38-2.38z"/><path fill="#c33" d="m80.806 105.032 1.587.794-1.587-.794m83.314 0 1.587.794-1.587-.794z"/><path fill="#fcc" d="m167.293 104.24 2.38 2.38-2.38-2.38z"/><path fill="#9cf" d="m179.195 104.24 2.38 2.38-2.38-2.38z"/><path fill="#69c" d="m181.575 104.24 2.38 2.38-2.38-2.38z"/><path fill="#6cc" d="m55.414 106.62 2.38 2.38-2.38-2.38z"/><path fill="#9cf" d="m57.795 106.62 2.38 2.38-2.38-2.38z"/><path fill="#fcc" d="m67.316 106.62 2.38 2.38-2.38-2.38zM176.815 106.62l2.38 2.38-2.38-2.38z"/><path fill="#9cf" d="m186.336 106.62 2.38 2.38-2.38-2.38z"/><path fill="#6cc" d="m188.717 106.62 2.38 2.38-2.38-2.38M48.273 109l2.38 2.38-2.38-2.38z"/><path fill="#ccf" d="m50.654 109 2.38 2.38-2.38-2.38z"/><path fill="#fcc" d="m60.175 109 2.38 2.38-2.38-2.38z"/><path fill="#c33" d="m64.143 109.793 1.587.793-1.587-.793m116.64 0 1.587.793-1.587-.793z"/><path fill="#fcc" d="m183.956 109 2.38 2.38-2.38-2.38z"/><path fill="#ccf" d="m193.477 109 2.38 2.38-2.38-2.38z"/><path fill="#6cc" d="m195.858 109 2.38 2.38-2.38-2.38z"/><path fill="#9cc" d="m41.132 111.38 2.38 2.381-2.38-2.38z"/><path fill="#ccf" d="m43.512 111.38 2.38 2.381-2.38-2.38z"/><path fill="#fcc" d="m53.034 111.38 2.38 2.381-2.38-2.38zM191.097 111.38l2.38 2.381-2.38-2.38z"/><path fill="#ccf" d="m200.619 111.38 2.38 2.381-2.38-2.38z"/><path fill="#9cc" d="m203 111.38 2.38 2.381-2.38-2.38M36.37 113.76l2.38 2.38-2.38-2.38z"/><path fill="#c66" d="m48.273 113.761 2.38 2.38-2.38-2.38zM195.858 113.761l2.38 2.38-2.38-2.38z"/><path fill="#9cc" d="m207.76 113.761 2.38 2.38-2.38-2.38m-166.628 2.38 2.38 2.38-2.38-2.38z"/><path fill="#ccf" d="m43.512 116.141 2.38 2.38-2.38-2.38z"/><path fill="#fcc" d="m53.034 116.141 2.38 2.38-2.38-2.38m138.063 0 2.38 2.38-2.38-2.38z"/><path fill="#ccf" d="m200.619 116.141 2.38 2.38-2.38-2.38z"/><path fill="#9cc" d="m203 116.141 2.38 2.38-2.38-2.38z"/><path fill="#6cc" d="m48.273 118.522 2.38 2.38-2.38-2.38z"/><path fill="#ccf" d="m50.654 118.522 2.38 2.38-2.38-2.38z"/><path fill="#fcc" d="m60.175 118.522 2.38 2.38-2.38-2.38z"/><path fill="#c33" d="m64.143 119.314 1.587.794-1.587-.794m116.64 0 1.587.794-1.587-.794z"/><path fill="#fcc" d="m183.956 118.522 2.38 2.38-2.38-2.38z"/><path fill="#ccf" d="m193.477 118.522 2.38 2.38-2.38-2.38z"/><path fill="#6cc" d="m195.858 118.522 2.38 2.38-2.38-2.38m-140.444 2.38 2.38 2.38-2.38-2.38z"/><path fill="#9cf" d="m57.795 120.902 2.38 2.38-2.38-2.38z"/><path fill="#fcc" d="m67.316 120.902 2.38 2.38-2.38-2.38zM176.815 120.902l2.38 2.38-2.38-2.38z"/><path fill="#9cf" d="m186.336 120.902 2.38 2.38-2.38-2.38z"/><path fill="#6cc" d="m188.717 120.902 2.38 2.38-2.38-2.38z"/><path fill="#69c" d="m62.555 123.283 2.38 2.38-2.38-2.38z"/><path fill="#9cf" d="m64.936 123.283 2.38 2.38-2.38-2.38z"/><path fill="#fcc" d="m76.838 123.283 2.38 2.38-2.38-2.38z"/><path fill="#c33" d="m80.806 124.075 1.587.794-1.587-.794m83.314 0 1.587.794-1.587-.794z"/><path fill="#fcc" d="m167.293 123.283 2.38 2.38-2.38-2.38z"/><path fill="#9cf" d="m179.195 123.283 2.38 2.38-2.38-2.38z"/><path fill="#69c" d="m181.575 123.283 2.38 2.38-2.38-2.38m-111.878 2.38 2.38 2.38-2.38-2.38z"/><path fill="#9cc" d="m72.077 125.663 2.38 2.38-2.38-2.38z"/><path fill="#cff" d="m74.457 125.663 2.38 2.38-2.38-2.38z"/><path fill="#fcc" d="m83.98 125.663 2.38 2.38-2.38-2.38z"/><path fill="#c33" d="m87.947 126.456 1.587.793-1.587-.793m69.032 0 1.587.793-1.587-.793z"/><path fill="#fcc" d="m160.152 125.663 2.38 2.38-2.38-2.38z"/><path fill="#cff" d="m169.673 125.663 2.38 2.38-2.38-2.38z"/><path fill="#9cc" d="m172.054 125.663 2.38 2.38-2.38-2.38z"/><path fill="#69c" d="m174.434 125.663 2.38 2.38-2.38-2.38m-97.596 2.38 2.38 2.38-2.38-2.38z"/><path fill="#9cc" d="m79.218 128.043 2.38 2.38-2.38-2.38z"/><path fill="#cff" d="m81.599 128.043 2.38 2.38-2.38-2.38z"/><path fill="#fcc" d="m91.12 128.043 2.38 2.38-2.38-2.38z"/><path fill="#c33" d="m95.088 128.836 1.587.794-1.587-.794m54.75 0 1.586.794-1.586-.794z"/><path fill="#fcc" d="m153.01 128.043 2.381 2.38-2.38-2.38z"/><path fill="#cff" d="m162.532 128.043 2.38 2.38-2.38-2.38z"/><path fill="#9cc" d="m164.913 128.043 2.38 2.38-2.38-2.38z"/><path fill="#69c" d="m167.293 128.043 2.38 2.38-2.38-2.38z"/><path fill="#9cc" d="m86.36 130.424 2.38 2.38-2.38-2.38z"/><path fill="#ccf" d="m88.74 130.424 2.38 2.38-2.38-2.38z"/><path fill="#fcc" d="m98.261 130.424 2.38 2.38-2.38-2.38z"/><path fill="#c33" d="m100.642 130.424 2.38 2.38-2.38-2.38m42.847 0 2.38 2.38-2.38-2.38z"/><path fill="#fcc" d="m145.87 130.424 2.38 2.38-2.38-2.38z"/><path fill="#ccf" d="m155.391 130.424 2.38 2.38-2.38-2.38z"/><path fill="#9cc" d="m157.771 130.424 2.38 2.38-2.38-2.38m-64.27 2.38 2.38 2.38-2.38-2.38z"/><path fill="#ccf" d="m95.881 132.804 2.38 2.38-2.38-2.38m52.369 0 2.38 2.38-2.38-2.38z"/><path fill="#9cc" d="m150.63 132.804 2.38 2.38-2.38-2.38m-49.988 2.38 2.38 2.381-2.38-2.38z"/><path fill="#c33" d="m105.403 135.185 2.38 2.38-2.38-2.38m33.325 0 2.38 2.38-2.38-2.38z"/><path fill="#9cc" d="m143.49 135.185 2.38 2.38-2.38-2.38z"/><path fill="#fcc" d="m105.403 137.565 2.38 2.38-2.38-2.38m33.325 0 2.38 2.38-2.38-2.38z"/><path fill="#ccf" d="m103.022 139.945 2.38 2.38-2.38-2.38z"/><path fill="#c33" d="m108.576 141.533.793 1.587-.793-1.587m28.565 0 .793 1.587-.793-1.587z"/><path fill="#ccf" d="m141.109 139.945 2.38 2.38-2.38-2.38z"/><path fill="#9cc" d="m103.022 142.326 2.38 2.38-2.38-2.38m38.087 0 2.38 2.38-2.38-2.38z"/><path fill="#fcc" d="m107.783 144.706 2.38 2.38-2.38-2.38m28.565 0 2.38 2.38-2.38-2.38z"/><path fill="#ccf" d="m105.403 147.087 2.38 2.38-2.38-2.38z"/><path fill="#c33" d="m110.956 148.674.794 1.587-.794-1.587m23.804 0 .794 1.587-.794-1.587z"/><path fill="#ccf" d="m138.728 147.087 2.38 2.38-2.38-2.38z"/><path fill="#9cc" d="m105.403 149.467 2.38 2.38-2.38-2.38m33.325 0 2.38 2.38-2.38-2.38z"/><path fill="#fcc" d="m110.163 151.847 2.38 2.38-2.38-2.38m23.805 0 2.38 2.38-2.38-2.38z"/><path fill="#cff" d="m107.783 154.228 2.38 2.38-2.38-2.38z"/><path fill="#c33" d="m113.337 155.816.793 1.586-.793-1.586m19.043 0 .793 1.586-.793-1.586z"/><path fill="#cff" d="m136.348 154.228 2.38 2.38-2.38-2.38z"/><path fill="#9cc" d="m107.783 156.608 2.38 2.38-2.38-2.38m28.565 0 2.38 2.38-2.38-2.38z"/><path fill="#69c" d="m107.783 158.989 2.38 2.38-2.38-2.38z"/><path fill="#fcc" d="m112.544 158.989 2.38 2.38-2.38-2.38m19.043 0 2.38 2.38-2.38-2.38z"/><path fill="#69c" d="m136.348 158.989 2.38 2.38-2.38-2.38z"/><path fill="#cff" d="m110.163 161.369 2.38 2.38-2.38-2.38zM133.968 161.369l2.38 2.38-2.38-2.38z"/><path fill="#9cc" d="m110.163 163.75 2.38 2.38-2.38-2.38m23.805 0 2.38 2.38-2.38-2.38z"/><path fill="#69c" d="m110.163 166.13 2.38 2.38-2.38-2.38m23.805 0 2.38 2.38-2.38-2.38z"/><path fill="#fcc" d="m114.924 168.51 2.38 2.38-2.38-2.38m14.283 0 2.38 2.38-2.38-2.38z"/><path fill="#9cf" d="m112.544 170.89 2.38 2.381-2.38-2.38z"/><path fill="#c33" d="m118.097 172.478.794 1.587-.794-1.587m9.522 0 .794 1.587-.794-1.587z"/><path fill="#9cf" d="m131.587 170.89 2.38 2.381-2.38-2.38z"/><path fill="#69c" d="m112.544 173.271 2.38 2.38-2.38-2.38m19.043 0 2.38 2.38-2.38-2.38z"/><path fill="#fcc" d="m117.305 175.651 2.38 2.38-2.38-2.38m9.521 0 2.38 2.38-2.38-2.38z"/><path fill="#9cf" d="m114.924 178.032 2.38 2.38-2.38-2.38zM129.207 178.032l2.38 2.38-2.38-2.38z"/><path fill="#6cc" d="m114.924 180.412 2.38 2.38-2.38-2.38m14.283 0 2.38 2.38-2.38-2.38z"/><path fill="#fcc" d="m119.685 182.793 2.38 2.38-2.38-2.38m4.76 0 2.381 2.38-2.38-2.38z"/><path fill="#ccf" d="m117.305 185.173 2.38 2.38-2.38-2.38m9.521 0 2.38 2.38-2.38-2.38z"/><path fill="#6cc" d="m117.305 187.553 2.38 2.38-2.38-2.38z"/><path fill="#c66" d="m122.065 187.553 2.38 2.38-2.38-2.38z"/><path fill="#6cc" d="m126.826 187.553 2.38 2.38-2.38-2.38z"/><path fill="#ccf" d="m119.685 192.314 2.38 2.38-2.38-2.38m4.76 0 2.381 2.38-2.38-2.38z"/><path fill="#9cc" d="m119.685 194.695 2.38 2.38-2.38-2.38m4.76 0 2.381 2.38-2.38-2.38m-2.38 4.76 2.38 2.38-2.38-2.38z"/></g></svg>