<svg xmlns="http://www.w3.org/2000/svg" xmlns:xlink="http://www.w3.org/1999/xlink" width="512" height="512"><defs><g id="d"><g id="b"><path id="a" d="M0 0v1h.5Z" transform="rotate(18 3.157 -.5)"/><use xlink:href="#a" transform="scale(-1 1)" width="100%" height="100%"/></g><g id="c"><use xlink:href="#b" transform="rotate(72)" width="100%" height="100%"/><use xlink:href="#b" transform="rotate(144)" width="100%" height="100%"/></g><use xlink:href="#c" transform="scale(-1 1)" width="100%" height="100%"/></g></defs><path style="fill:#039" d="M0-2.51h518.287v523.007H0z"/><g style="fill:#fc0" transform="matrix(20.62186 0 0 22.49289 259.056 261.052)"><use height="100%" width="100%" xlink:href="#d" y="-6"/><use height="100%" width="100%" xlink:href="#d" y="6"/><g id="e"><use height="100%" width="100%" xlink:href="#d" x="-6"/><use height="100%" width="100%" xlink:href="#d" transform="rotate(-144 -2.344 -2.11)"/><use height="100%" width="100%" xlink:href="#d" transform="rotate(144 -2.11 -2.344)"/><use height="100%" width="100%" xlink:href="#d" transform="rotate(72 -4.663 -2.076)"/><use height="100%" width="100%" xlink:href="#d" transform="rotate(72 -5.076 .534)"/></g><use height="100%" width="100%" xlink:href="#e" transform="scale(-1 1)"/></g></svg>