<svg xmlns="http://www.w3.org/2000/svg" height="512" width="512"><path fill-rule="evenodd" fill="#be0027" d="M0 0h512v512H0z"/><path fill-rule="evenodd" fill="#3b5aa3" d="M20.48 20.48h470v471.04h-470z"/><path d="M251.86 396.13c1.818.996 4.694.943 6.312.078 103.36-54.986 103.42-205.78.15-259.99-1.918-1.01-4.706-.956-6.613.079-100.72 55.105-100.99 204.19.151 259.84z" fill-rule="evenodd" fill="#cbe0e5"/><path d="M251.86 398.85c1.607 1.31 4.847 1.184 6.312.078 76.168-57.026 76.615-92.573 73.239-92.572l-150.75.079c-2.305.002 1.328 36.086 71.199 92.414z" fill-rule="evenodd" fill="#add2d9"/><path d="M192.6 334.61c6.536-1.701 14.431-2.15 20.863 1.286 5.715 2.986 9.026 2.957 15.183 3.039 6.444.087 11.51 4.822 18.478 5.007 12.829.336 18.235 6.698 8.26 6.71-4.715.008-14.822-3.142-19.7-2.465-10.191 1.052-16.658 3.308-26.25 13.976l11.086 7.596c9.588-3.908 11.195-8.304 16.504-8.48 5.998-.192 8.036-3.908 14.972-3.917 7.88 1.432 18.555-.978 24.807-2.379 11.09-2.578 5.814-10.328-.908-13.138-5.434-2.313-15.609-.085-21.927-2.38-4.782-1.856-.847-4.842 1.72-5.479 2.596-.478 5.38.37 8.607.89 5.762.498 12.999-.056 18.058-.849 10.46-1.62 10.019-4.687 15.07-4.77 3.683-.176 6.486-1.277 8.995-3.08 2.949-1.974 6.016-6.02 9.59-5.868l9.568.406-13.477 30.309-38.073 38.753-19.718 7.48-43.342-28.216-21.856-33.523 3.49-.907z" fill-rule="evenodd" fill="#fdf9a1"/><path d="m242.41 305.14 87.027-.405 1.53-7.711s-3.105-.464-5.61-.61c-3.124-.192-8.48 3.268-12.068 3.247-2.537-.018-5.446-4.56-7.987-4.466-4.435-.041-4.83 3.951-9.01 4.06-3.373-.115-4.81-2.69-9.178-2.435-4.58.259-4.24 2.78-10.027 2.637-7.643-.192-10.713-6.824-16.828-6.899-10.207-.121-10.54 9.741-17.849 12.581z" fill-rule="evenodd" fill="#179a3b"/><path d="m242.41 307 89.576-.456v-2.434l-91.614.456L242.41 307z" fill-rule="evenodd" fill="#fdf9a1"/><path d="M279.22 333.92c1.38 5.29 2.834 7.089 8.398 8.437 5.496 1.352 13.88-4.006 8.67-9.178-4.962-4.812-10.175-6.034-14.619-10.368-9.353-9.24-23.446-31.882-23.459-47.849-.011-13.712-1.333-41.855-1.343-68.511.007-1.727-5.209 4.843-5.2 6.598.239 23.516.203 41.289 1.158 65.002 1.48 17.334 9.753 29.006 17.016 39.54 3.254 5.049 7.957 10.493 9.378 16.329z" fill-rule="evenodd" fill="#a79270"/><text font-family="helvetica" font-size="25.614" stroke="#fff" y="269.487" x="465.114" stroke-width="1.638" fill="#bd0728" transform="translate(-256.29 5.09)">
    <tspan>G</tspan>
   </text><text font-family="helvetica" font-size="25.614" stroke="#fff" y="269.607" x="488.065" stroke-width="1.638" fill="#bd0728" transform="translate(-256.29 5.09)">
    <tspan>U</tspan>
   </text><text font-family="helvetica" font-size="25.614" stroke="#fff" y="269.59" x="516.053" stroke-width="1.638" fill="#bd0728" transform="translate(-256.29 5.09)">
    <tspan>A</tspan>
   </text><text font-family="helvetica" font-size="25.614" stroke="#fff" y="269.542" x="539.532" stroke-width="1.638" fill="#bd0728" transform="translate(-256.29 5.09)">
    <tspan>M</tspan>
   </text><path d="M211.9 207.31c-1.158 2.234 2.712-.653 3.588-.964 5.015-1.784 6.98-8.12 15.62-4.306 6.8 2.938 15.93 1.23 11.157 4.206-5.897 3.53-17.64 7.44-17.872 24.945.981 1.712 1.052 1.442 1.873-.393 1.784-4.08 10.296-15.16 14.508-14.238 1.695.44 6.675-5.007 6.791-3.452.45 4.371-6.762 13.214-6.685 25.05.018 2.742 3.39 3.63 5.015 1.702 1.616-1.701 2.525-3.46 5.355-5.694 5.002-4.104 3.62-21.51 4.238-20.693 3.54 4.584 4.085 17.513 9.359 22.816 4.382 4.408 7.926 2.297 6.97-3.824-1.904-12.27-7.704-8.762-10.465-21.453-.56-2.472-.697-4.705 2.574-3.671 4.001 1.16 6.35 3.018 9.334 7.531 2.984 4.304 8.58 8.43 11.813 10.963 5.641 4.336 7.622.55 4.93-5.013-2.98-6.242-9.697-11.418-15.807-13.682-4.628-1.6-6.278-1.752-10.356-2.535-1.133-.24-2.305-2.562-.29-3.845 4.32-2.64 9.487-5.621 14.726-5.772 5.045-.128 9.041 3.916 12.578 4.928 7.055 1.85 7.02-2.628 3.91-5.949-2.555-2.805-7.958-7.507-13.002-6.883-10.178 1.249-9.536.964-15.78 5.105-2.29 1.35-4.833 2.84-3.884 1.203 2.284-4.11.156-3.403 3.685-7.584 2.744-3.064 4.76-5.27 7.48-6.034 2.583-.623 5.996-3.367 7.052-4.76 2.535-3.506.35-5.508-3.568-4.334-3.4.936-5.228 3.199-7.565 3.824-5.482 1.727-9.905 14.27-10.58 16.046-.874 2.122-1.84 1.07-1.662-.727.792-8.856 1.54-23.682-1.587-29.786-4.708-9-4.272-4.803-6.079-.533-2.721 6.785-1.776 13.11-.062 19.76.749 3.319 3.529 7.095 4.027 9.7.359 2.047-1.188-.637-2.087-1.864-2.956-4.524-5.117-7.583-9.93-10.045-3.289-2.082-12.148-2.363-15.232-1.414-1.335.411 1.481 2.317 2.674 3.264 3.228 2.565 9.344 3.365 13.46 5.895 3.533 2.172 6.224 3.57 7.395 6.573.488 2.23 1.212 5.54-.257 5.46-3.855-.222-9.847-3.558-22.148-2.186-6.282.83-11.736 6.204-15.213 12.663z" fill-rule="evenodd" fill="#239e46"/><path fill-rule="evenodd" d="M238.71 319.84h3.569v5.949h-3.569z"/><path d="M220.99 280.21c14.154 19.599 36.841 31.025 37.295 39.926-14.334-.058-29.871.006-44.206-.05 10.156-12.21 16.346-20.455 6.91-39.877z" fill-rule="evenodd" fill="#fdf9ff"/><path d="M208.12 320.58c19.23 4.287 42.187 6.65 56.851-.6.12 4.286-4.768 10.456-8.775 10.456h-36.898c4.286-.615 6.73-1.922 13.704-2.284l-19.59.24c-2.165.081-6.012-5.73-5.29-7.813z" fill-rule="evenodd" fill="#a68861"/><path d="M251.73 405.93c1.955 1.071 5.045 1.014 6.785.085 111.1-59.135 111.16-221.3.162-279.61-2.063-1.087-5.06-1.028-7.11.084-108.26 59.262-108.55 219.59.163 279.44zm.552-13.35c1.707.945 4.404.896 5.923.073 92.997-54.73 94.136-199.32.14-251.15-1.798-1.321-4.415-.907-6.204.075-89.067 52.672-94.034 191.3.141 251z" fill-rule="evenodd" fill="#be0027"/><text font-size="25.614" y="269.487" x="465.114" font-family="helvetica" fill="#bd0728" transform="translate(-256.29 5.09)">
    <tspan>G</tspan>
   </text><text font-size="25.614" y="269.607" x="488.065" font-family="helvetica" fill="#bd0728" transform="translate(-256.29 5.09)">
    <tspan>U</tspan>
   </text><text font-size="25.614" y="269.59" x="516.053" font-family="helvetica" fill="#bd0728" transform="translate(-256.29 5.09)">
    <tspan>A</tspan>
   </text><text font-size="25.614" y="269.542" x="539.532" font-family="helvetica" fill="#bd0728" transform="translate(-256.29 5.09)">
    <tspan>M</tspan>
   </text></svg>