<svg xmlns="http://www.w3.org/2000/svg" version="1.0" width="512" height="512" viewBox="0 0 256 256"><defs><clipPath clipPathUnits="userSpaceOnUse" id="a"><path style="fill:#000;stroke:none" d="M73.828-44h300v300h-300z"/></clipPath></defs><g transform="matrix(.85333 0 0 .85333 -63 37.547)" clip-path="url(#a)"><path style="fill:#fff" d="M0-44h450v300H0z"/><path style="fill:#009543" d="M0 166h450v90H0z"/><path style="fill:#00209f" d="M0-44h450v90H0z"/><path style="fill:#000;stroke:#000;stroke-width:.87954509px;stroke-linecap:butt;stroke-linejoin:miter" d="M224.573 108.913c-1.504.032-2.971 1.698-2.971 1.698l.13 17.796-5.62 5.886h4.549l-.038 10.205-26.907 36.23-3.977-1.374-6.952 14.83s17.195 10.767 42.152 10.472c27.392-.325 42.274-10.969 42.274-10.969l-7.183-14.64-3.518 1.53-27.251-36.042-.039-10.51h4.549l-6.19-5.812.036-17.731s-1.54-1.602-3.044-1.57z" transform="translate(-30.564 -72.26) scale(1.13695)"/><path style="fill:none;stroke:#000;stroke-width:4.39772797;stroke-linecap:butt;stroke-linejoin:miter;stroke-miterlimit:4;stroke-dasharray:none" d="M233.953 151.518H215.35s-6.753-14.228-5.659-24.175c1.115-10.128 6.903-14.919 14.6-15.004 9.098-.101 13.867 4.459 15.307 14.599 1.428 10.048-5.644 24.58-5.644 24.58z" transform="translate(-30.564 -72.26) scale(1.13695)"/><path style="fill:#fff;stroke:none" d="M192.05 185.434c-.304.405-2.534 4.866-2.534 4.866l3.852-.81-1.318-4.056zM194.28 191.213l-4.054 1.317 4.866 1.927-.811-3.244zM196.106 185.535l2.027 5.982 4.968-1.42-1.318-2.838-5.677-1.724zM199.248 193.646l.71 2.433 6.59 1.622-2.636-5.576-4.664 1.52zM206.548 188.577l2.331 5.576 4.968-1.927-1.622-2.433-5.677-1.216zM209.792 196.18l.81 2.13 7.706 1.114-3.244-5.069-5.272 1.825zM217.192 190.199l2.84 4.967 7.197-2.636-.811-1.926-9.226-.405zM221.35 196.991l1.52 2.636 8.921-.304-3.345-4.968-7.097 2.636zM230.777 190.402l2.433 4.156 5.678-2.737-1.521-2.23-6.59.81zM240.104 193.544l-5.677 2.839 1.52 2.433 7.604-1.217-3.447-4.055zM241.93 189.185l2.94 3.65 4.764-3.751-1.622-1.724-6.083 1.825zM250.648 191.111l-4.562 3.447 1.216 2.129 6.286-1.622-2.94-3.954zM256.933 183.913l1.115 1.622-3.142 4.664-3.244-4.157 5.271-2.129zM259.062 187.968l1.926 3.853-3.852 1.318-.304-1.825 2.23-3.346z" transform="translate(-30.564 -72.26) scale(1.13695)"/></g></svg>