<svg xmlns="http://www.w3.org/2000/svg" height="512" width="512" version="1.0"><defs><clipPath id="a" clipPathUnits="userSpaceOnUse"><path fill-opacity=".67" d="M0 0h512v512H0z"/></clipPath></defs><g fill-rule="evenodd" clip-path="url(#a)"><path fill="#dc0000" d="M-128 341.33h769.46V512H-128z"/><path fill="#ffcb00" d="M-128 0h769.46v170.67H-128z"/><path fill="#0000ba" d="M-128 170.67h769.46v170.67H-128z"/><g stroke-width=".113" fill="#fff"><path d="m269.589 228.714-12.397-8.856-12.337 8.943 4.588-14.532-12.313-8.974 15.234-.125 4.725-14.489 4.826 14.455 15.235.02-12.25 9.058 4.689 14.5zM331.28 236.305l-12.397-8.856-12.336 8.943 4.588-14.532-12.314-8.974 15.235-.125 4.725-14.489 4.826 14.455 15.234.02-12.25 9.058 4.69 14.5zM384.748 269.676l-12.397-8.856-12.336 8.943 4.588-14.533-12.314-8.974 15.234-.125 4.726-14.488 4.826 14.455 15.234.019-12.25 9.058 4.689 14.5zM414.91 319.713l-12.398-8.855-12.336 8.942 4.588-14.532-12.313-8.974 15.234-.125 4.725-14.489 4.826 14.455 15.235.02-12.251 9.058 4.69 14.5zM182.986 236.305l12.397-8.856 12.336 8.943-4.588-14.532 12.314-8.974-15.235-.125-4.725-14.489-4.826 14.455-15.234.02 12.25 9.058-4.69 14.5zM129.518 269.676l12.397-8.856 12.336 8.943-4.588-14.533 12.314-8.974-15.234-.125-4.725-14.488-4.827 14.455-15.234.019 12.25 9.058-4.689 14.5zM99.353 319.713l12.397-8.855 12.337 8.942-4.588-14.532 12.313-8.974-15.234-.125-4.725-14.489-4.827 14.455-15.234.02 12.25 9.058-4.689 14.5z"/></g></g></svg>